<svg width="503" height="287" xmlns="http://www.w3.org/2000/svg" xmlns:xlink="http://www.w3.org/1999/xlink"><defs><path id="path-1" d="M0 0h503v287H0z"/></defs><g id="Page-1" stroke="none" stroke-width="1" fill="none" fill-rule="evenodd"><g id="maquette" transform="translate(-260 -158)"><g id="header" transform="translate(-71.742)"><g id="Group-83" transform="translate(331.742 158)"><g id="Group-3"><mask id="mask-2" fill="#fff"><use xlink:href="#path-1"/></mask><path d="M251.501 287C112.601 287 0 222.753 0 143.5S112.6 0 251.5 0C390.399 0 503 64.247 503 143.5S390.4 287 251.501 287Z" id="Fill-1" fill="#19171C" opacity=".501" mask="url('#mask-2')"/></g><path d="M225.388 225.623c.037 1.248.427 1.754 1.4 1.792h2.058c1.634 0 2.448-1.636 2.448-4.873 0-3.703-.194-5.38-.814-6.665-.428-.935-1.556-1.598-2.644-1.598h-2.448v11.344Zm-.04-11.97h3.07c1.478 0 2.1-1.52 2.1-4.988 0-2.65-.466-4.873-1.167-5.495-.467-.431-.932-.547-2.292-.547h-1.711v11.03ZM214 227.378h1.75c1.165-.038 1.98-.74 1.98-1.638V203.87c-.038-.976-.427-1.208-2.214-1.248H214V202h13.486c3.73 0 5.48.35 7.58 1.52 1.903 1.051 2.953 2.69 2.953 4.638 0 1.405-.623 2.768-1.593 3.625-1.128.976-2.139 1.445-4.783 2.146 2.916.506 4.238.935 5.753 2.026 1.594 1.132 2.604 3.157 2.604 5.224 0 2.377-1.166 4.404-3.187 5.497-1.903 1.052-3.73 1.324-8.588 1.324H214v-.623Z" id="Fill-4" fill="#F4B92F"/><path d="m254.345 216.656-3.18-10.368-3.411 10.328 6.59.04ZM240 227.377c2.637-.078 4.382-2.145 6.165-7.368L251.903 202h5.816l7.714 22.92c.619 2.145.93 2.417 2.441 2.457H269V228h-15.044v-.623h1.59c1.163 0 1.667-.353 1.667-1.094 0-.35-.076-.854-.231-1.363l-2.482-7.72h-6.861l-.853 2.693c-.35 1.207-.544 2.259-.544 3.274 0 2.922 1.319 4.21 4.305 4.21V228H240v-.623Z" id="Fill-6" fill="#F4B92F"/><path d="M280.515 215.017h1.721c2.715 0 3.442-1.078 3.442-5.2 0-2.695-.193-3.89-.65-4.814-.498-.887-1.417-1.388-2.676-1.388h-1.837v11.402ZM270 228.076h.536c1.607-.08 2.371-.732 2.332-1.89l.04-21.22c.037-.85-.46-1.271-1.684-1.35h-1.147V203h12.312c4.053 0 5.734.309 7.761 1.425 1.911 1.078 3.096 2.85 3.096 4.777 0 1.27-.611 2.657-1.528 3.542-1.07 1.08-2.179 1.618-4.97 2.582 5.2 1.308 6.498 2.81 6.384 7.433v2.734c0 .927.23 1.348.727 1.348.994 0 1.684-1.886 1.684-4.852l-.04-1.542H296c-.04 3.622-.04 4.082-.344 5.123-.613 2.12-2.524 3.43-5.009 3.43a6.663 6.663 0 0 1-4.55-1.81c-.88-.81-1.262-2.197-1.262-4.277 0-.27 0-1.079.04-1.656.076-.924.113-2.043.113-2.389 0-2.157-.727-3.196-2.255-3.196h-2.218v10.63c0 .925.42 1.58 1.261 1.774h1.261v.615H270v-.615Z" id="Fill-8" fill="#F4B92F"/><g id="Group-82" transform="translate(34 98)"><path d="M327.19 64.018c4.57-6.824 6.67-14.577 6.67-22.562 0-7.984-1.985-16.085-6.9-22.794 2.1 6.94 3.046 13.765 3.046 22.794 0 9.053-.83 15.622-2.815 22.562m-69.476-44.056c-4.546 6.825-6.669 14.577-6.669 22.562 0 7.985 1.985 15.854 6.9 22.794-2.1-6.94-3.046-13.741-3.046-22.794 0-9.052.83-15.621 2.815-22.562m5.145 22.562c0-16.921 3.023-25.974 6.184-32.195-5.376 4.828-10.291 14.693-10.291 32.195 0 17.386 5.976 27.135 11.814 32.775-3.161-5.988-7.707-15.853-7.707-32.775M261.8 74.487c-9.23-7.289-14.722-17.873-14.722-31.034 0-16.55 7.707-29.48 20.906-36.884C275.574 2.344 283.765 0 294.033 0c10.753 0 21.367 3.273 29.789 10.213 9.691 7.985 14.006 19.266 14.006 31.476 0 16.805-8.4 29.618-22.659 37.487-5.607 3.064-13.89 5.872-21.828 5.872-11.814 0-23.005-3.76-31.542-10.561m8.999-31.963c0-20.333 5.376-32.427 12.252-38.415-10.268 4.688-16.336 18.082-16.336 38.415 0 19.962 8.514 33.124 19.151 38.3-7.015-7.057-15.067-17.99-15.067-38.3m31.519 37.348c10.29-4.689 15.898-18.082 15.898-38.416 0-19.962-8.076-33.123-19.152-38.3 7.938 7.057 15.068 17.99 15.068 38.3 0 20.334-4.915 32.427-11.814 38.416m-7.476 1.88c9.345-5.269 15.298-20.658 15.298-38.415 0-21.146-7.338-36.072-19.267-40.296-9.576 4.48-16.106 19.15-16.106 38.067 0 20.914 9.46 36.188 20.075 40.644m19.52-73.07c3.139 5.988 7.707 15.853 7.707 32.774 0 16.922-2.815 25.974-5.953 32.195 5.353-4.805 10.037-14.693 10.037-32.195 0-17.385-5.953-27.134-11.79-32.775" id="Fill-10" fill="#F4B92F"/><path d="M79.075 41.456c0 17.502-4.684 27.39-10.06 32.195 3.16-6.22 5.976-15.273 5.976-32.195 0-16.921-4.569-26.786-7.707-32.775 5.838 5.64 11.79 15.39 11.79 32.775" id="Fill-12" fill="#1C1C1C"/><path d="M230.856 80.36c-7.476-4.248-8.283-10.353-8.283-35.491v-4.945c0-25.37 1.038-30.779 8.283-35.351-4.776 6.337-4.776 12.58-4.776 35.351v4.945c0 22.794 0 28.898 4.776 35.49" id="Fill-14" fill="#1C1C1C"/><path d="m151.343 58.378 1.061 1.648c7.915 12.395 12.576 17.246 17.698 20.658-6.645-2.112-13.175-6.104-20.974-19.474l-.83-1.416c-2.677-4.596-4.892-8.937-7.454-14.461 3.738 2.948 7.707 8.588 10.499 13.045" id="Fill-16" fill="#1C1C1C"/><path d="M254.9 42.524c0 9.053.946 15.854 3.045 22.794-4.914-6.94-6.899-14.809-6.899-22.794 0-7.985 2.123-15.737 6.669-22.562-1.985 6.94-2.815 13.51-2.815 22.562" id="Fill-18" fill="#1C1C1C"/><path d="M79.075 41.456c0-17.385-5.953-27.134-11.79-32.775 3.137 5.989 7.706 15.854 7.706 32.775 0 16.922-2.815 25.974-5.976 32.195 5.376-4.805 10.06-14.693 10.06-32.195M46.264 85.048c-11.814 0-23.028-3.76-31.543-10.561C5.491 67.198 0 56.614 0 43.453c0-16.55 7.707-29.48 20.905-36.884C28.497 2.344 36.665 0 46.955 0c10.753 0 21.367 3.273 29.79 10.213C86.434 18.198 90.75 29.48 90.75 41.69c0 16.805-8.422 29.618-22.658 37.487-5.607 3.064-13.89 5.872-21.828 5.872m24.873-43.592c0-19.962-8.075-33.123-19.151-38.3 7.937 7.057 15.044 17.99 15.044 38.3 0 20.334-4.891 32.427-11.79 38.416 10.29-4.689 15.897-18.082 15.897-38.416M7.822 42.524c0-9.052.83-15.621 2.815-22.562C6.068 26.787 3.97 34.54 3.97 42.524c0 7.985 1.984 15.854 6.899 22.794-2.1-6.94-3.046-13.741-3.046-22.794M43.795 3.041c-9.576 4.48-16.106 19.15-16.106 38.067 0 20.914 9.46 36.188 20.074 40.644 9.345-5.269 15.299-20.658 15.299-38.415 0-21.146-7.361-36.072-19.267-40.296m-7.822 1.068C25.705 8.797 19.636 22.19 19.636 42.524c0 19.962 8.514 33.124 19.152 38.3-7.015-7.057-15.068-17.99-15.068-38.3 0-20.333 5.376-32.427 12.253-38.415m43.91 14.553c2.1 6.94 3.045 13.765 3.045 22.794 0 9.053-.83 15.622-2.815 22.562 4.569-6.824 6.669-14.577 6.669-22.562 0-7.984-1.985-16.085-6.9-22.794M23.49 75.3c-3.16-5.988-7.706-15.853-7.706-32.775 0-16.921 3.022-25.974 6.184-32.195-5.377 4.828-10.292 14.693-10.292 32.195 0 17.386 5.954 27.135 11.814 32.775" id="Fill-20" fill="#F4B92F"/><path d="M270.798 42.524c0 20.31 8.052 31.243 15.067 38.3-10.637-5.176-19.151-18.338-19.151-38.3 0-20.333 6.068-33.727 16.336-38.415-6.876 5.988-12.252 18.082-12.252 38.415" id="Fill-22" fill="#1C1C1C"/><path d="M201.552 9.517c-2.815-4.828-6.553-6.244-9.23-6.824l.116-1.416c5.492 0 15.644.348 23.582.348h1.061v2.367c-1.984 9.401-1.984 13.974-1.984 35.932v4.945c0 21.981 0 26.67 1.984 36.07l-.023 2.461h-1.269c-6.415 0-18.205.232-22.89.348v-.139c2.746-.487 5.123-1.114 6.923-1.857l-.254-1.509c-.577.117-1.385.233-2.1.233a6.16 6.16 0 0 1-.53-.302c.969-.65 1.776-1.323 2.4-2.066 2.33-2.809 3.853-6.337 4.314-9.749.461-3.157.808-9.633.808-27.367s-.116-26.67-2.908-31.475m.923-4.944c5.492 6.337 5.492 12.58 5.492 35.351v4.945c0 22.794 0 28.898-5.492 35.49 8.192-4.247 9-10.352 9-35.49v-4.945c0-25.37-1.062-30.779-9-35.351" id="Fill-24" fill="#F4B92F"/><path d="M412.196 4.689c3.738 0 6.553 2.692 8.076 6.337.346-3.157.692-5.27 1.384-7.034.83 1.765 1.292 3.877 1.523 7.15 1.523-3.76 4.453-6.453 7.937-6.453-4.891 3.876-8.283 11.397-9.46 18.57-.808-7.173-4.43-14.81-9.46-18.57" id="Fill-26" fill="#1C1C1C"/><path d="M168.626 23.142c0 7.753-3.508 14.206-8.169 17.966 2.677-3.876 4.2-9.4 4.2-17.734 0-8.356-2.215-14.112-4.777-17.85 5.607 3.505 8.746 9.75 8.746 17.618" id="Fill-28" fill="#1C1C1C"/><path d="M199.822 81.752c-1.8.743-4.177 1.37-6.923 1.857l-.115-1.253c1.57-.65 2.977-1.393 4.153-2.182.185.116.347.209.531.302.715 0 1.523-.116 2.1-.233l.254 1.51Z" id="Fill-30" fill="#F4B92F"/><path d="M207.967 39.924c0-22.77 0-29.014-5.492-35.351 7.938 4.572 9 9.98 9 35.351v4.945c0 25.138-.808 31.243-9 35.49 5.492-6.592 5.492-12.696 5.492-35.49v-4.945Z" id="Fill-32" fill="#1C1C1C"/><path d="M79.883 18.662c4.914 6.709 6.899 14.81 6.899 22.794 0 7.985-2.1 15.738-6.669 22.562 1.985-6.94 2.815-13.509 2.815-22.562 0-9.029-.946-15.853-3.045-22.794" id="Fill-34" fill="#1C1C1C"/><path d="M395.029 37.928c9.23 9.285 16.59 18.454 24.297 28.667-9.576-8.217-17.975-16.666-27.09-25.835l-3.16-3.18c-10.269-10.561-20.19-22.074-27.32-33.355 10.152 9.4 19.613 19.846 30.02 30.43l3.253 3.273Z" id="Fill-36" fill="#1C1C1C"/><path d="M15.783 42.524c0 16.922 4.545 26.787 7.706 32.775-5.86-5.64-11.814-15.39-11.814-32.775 0-17.502 4.915-27.367 10.292-32.195-3.162 6.221-6.184 15.274-6.184 32.195" id="Fill-38" fill="#1C1C1C"/><path d="M350.657 4.573c12.737 8.704 23.582 22.562 35.973 35.351l3.276 3.297c8.86 8.936 20.905 22.33 29.535 34.655l-14.237-14.322a1291.14 1291.14 0 0 1-17.767-17.873l-11.306-11.745c-16.014-16.55-16.821-20.659-25.474-29.363" id="Fill-40" fill="#1C1C1C"/><path d="M302.317 79.872c6.899-5.989 11.814-18.082 11.814-38.416 0-20.31-7.13-31.243-15.068-38.3 11.076 5.177 19.152 18.338 19.152 38.3 0 20.334-5.607 33.727-15.898 38.416" id="Fill-42" fill="#1C1C1C"/><path d="M106.14 4.573c7.961 4.572 9 9.98 9 35.351v4.945c0 25.138-.808 31.243-9 35.49 5.492-6.592 5.492-12.696 5.492-35.49v-4.945c0-22.77 0-29.014-5.491-35.351" id="Fill-44" fill="#1C1C1C"/><path d="M170.148 9.749c3.97 2.809 6.184 7.52 6.184 12.906 0 5.292-2.792 10.12-6.414 13.393 1.292-3.04 2.56-7.15 2.56-13.138 0-5.524-1.037-10.352-2.33-13.161" id="Fill-46" fill="#1C1C1C"/><path d="M149.243 45.333c3.508 3.064 6.9 6.708 8.884 9.865l.807 1.3c7.938 12.58 13.891 19.033 22.198 25.022-8.653-2.112-17.652-10.445-25.82-23.258l-.808-1.3c-2.33-3.76-4.084-7.52-5.26-11.63" id="Fill-48" fill="#1C1C1C"/><path d="M357.326 73.767c-1.523 3.76-4.454 6.476-7.961 6.476 5.03-3.9 8.307-11.513 9.46-18.685.831 7.172 4.338 14.786 9.46 18.685-3.737 0-6.53-2.715-8.052-6.36-.346 3.18-.692 5.293-1.408 7.057-.807-1.764-1.269-3.877-1.5-7.173" id="Fill-50" fill="#1C1C1C"/><path d="M7.822 42.524c0 9.053.946 15.854 3.046 22.794-4.915-6.94-6.9-14.809-6.9-22.794 0-7.985 2.1-15.737 6.67-22.562-1.985 6.94-2.816 13.51-2.816 22.562" id="Fill-52" fill="#1C1C1C"/><path d="M386.63 39.924c-12.391-12.79-23.236-26.647-35.973-35.351 8.653 8.704 9.46 12.813 25.474 29.363l11.306 11.745a1291.14 1291.14 0 0 0 17.767 17.873l14.237 14.322c-8.63-12.326-20.674-25.719-29.535-34.655l-3.276-3.297ZM336.882 1.277c4.66.116 10.73.232 16.22.232 6.9 0 13.8-.232 17.168-.232 1.87 0 3.277 0 4.684.348C390.252 18.43 403.451 32.427 419.21 47.7c.231-2.135.346-4.712.346-7.172 0-4.34-.115-8.24-.577-11.977-.807-7.173-2.676-12.581-5.376-16.458-3.022-4.456-7.13-7.752-13.198-9.4l.115-1.416c5.146 0 14.03.232 20.328.232 6.646 0 14.953-.116 19.037-.232L440 2.693c-2.907 1.3-6.184 3.876-8.284 6.452-2.1 2.716-3.853 6.012-4.799 8.589-1.523 4.224-2.215 8.449-2.561 12.325-.462 4.596-.716 10.817-.716 20.682v15.854c0 6.476.254 13.393.6 19.034l-2.815.371c-20.074-21.03-42.964-44.776-59.439-61.094h-.461c-.346 3.645-.461 8.101-.461 11.513 0 4.573 0 10.446.346 16.086 1.038 15.506 4.43 19.846 8.168 23.723 2.676 2.716 6.184 5.06 10.637 6.128l-.115 1.392c-2.815 0-13.914-.232-21.275-.232-6.414 0-14.698.232-18.09.232l-.115-1.392c2.215-1.068 4.2-2.252 7.13-5.177 3.022-3.18 7.107-9.749 8.168-19.265 1.038-9.17 1.038-16.806 1.038-28.087 0-11.28-3.853-17.385-7.937-21.146-4.315-3.992-8.86-5.292-12.253-5.988l.116-1.416Zm24.874 2.948c7.13 11.28 17.051 22.794 27.32 33.355l3.16 3.18c9.115 9.169 17.514 17.618 27.09 25.835-7.707-10.213-15.068-19.382-24.297-28.667l-3.254-3.273c-10.406-10.584-19.867-21.03-30.02-30.43Zm-12.391 76.018c3.507 0 6.438-2.715 7.96-6.476.231 3.296.693 5.409 1.5 7.173.716-1.764 1.062-3.877 1.408-7.057 1.523 3.645 4.315 6.36 8.053 6.36-5.123-3.9-8.63-11.513-9.46-18.685-1.154 7.172-4.43 14.786-9.461 18.685Zm69.845-23.745c-7.937-10.678-12.506-16.086-19.497-23.375l-3.046-3.18c-8.4-8.797-16.821-17.617-24.043-25.486 4.776 9.168 11.906 17.85 21.597 27.83l3.161 3.18c9.091 9.17 14.006 14.346 21.828 21.03Zm3.969-45.356c-.23-3.273-.692-5.385-1.523-7.15-.692 1.765-1.038 3.877-1.384 7.034-1.523-3.645-4.338-6.337-8.076-6.337 5.03 3.76 8.652 11.397 9.46 18.57 1.177-7.173 4.569-14.694 9.46-18.57-3.484 0-6.414 2.692-7.937 6.453Z" id="Fill-54" fill="#F4B92F"/><path d="M133 38.044v2.6c2.353.928 7.36 1.416 10.636 1.416a40.39 40.39 0 0 0 4.315-.255c3.046-3.76 5.03-9.378 5.03-16.783 0-5.524-1.523-10.236-3.738-13.625-2.93-4.48-6.53-6.36-10.152-7.056-1.985.116-3.277.232-4.684.928-1.27 9.169-1.408 21.634-1.408 32.775Zm18.343 20.334c-2.792-4.457-6.76-10.097-10.499-13.045 2.562 5.524 4.777 9.865 7.453 14.46l.83 1.417c7.8 13.37 14.33 17.362 20.975 19.474-5.122-3.412-9.783-8.263-17.698-20.658l-1.061-1.648Zm-17.744 7.753c.577 5.64 1.754 7.985 3.507 10.352 2.792 3.621 7.822 5.037 11.445 5.617l-.115 1.648c-5.492 0-21.02-.232-28.497-.232-7.707 0-18.344.116-23.259.232l-.115-1.392c2.215-.836 5.838-2.948 7.591-5.525 2.1-3.064 3.162-7.056 3.623-13.88.23-3.738.462-11.026.462-15.39v-4.573c0-8.565 0-16.085-.347-21.726-.346-5.64-.807-8.356-2.445-11.397-1.177-2.228-2.93-4.108-4.915-5.292-1.385-.813-3.969-1.764-5.607-1.88l.138-1.416c4.661.116 17.167.232 22.405.232 6.784 0 15.298-.348 22.89-.348 12.621 0 20.443.232 27.92 3.528C175.985 8.1 180.3 13.974 180.3 22.19c0 12.116-9.091 19.265-18.805 22.33 5.03 3.876 10.637 12.812 18.805 21.726 5.422 5.896 11.399 11.049 16.636 13.927-1.176.789-2.584 1.532-4.153 2.182l.115 1.253c-4.222.766-9.275 1.207-14.236 1.207-4.892 0-9.807-.696-12.83-1.88-4.084-1.648-7.822-4.34-10.867-7.637-7.707-8.333-13.083-19.15-17.975-29.966-1.061 0-2.93 0-3.992-.116v5.408c0 5.408.139 10.585.6 15.506Zm-18.46-26.207c0-25.37-1.038-30.779-8.998-35.351 5.491 6.337 5.491 12.58 5.491 35.351v4.945c0 22.794 0 28.898-5.491 35.49 8.191-4.247 8.999-10.352 8.999-35.49v-4.945Zm20.329 40.436c-5.722-6.012-5.722-12.697-5.722-35.491v-4.945c0-22.77.23-29.014 1.269-35.351-3.484 4.572-4.777 9.98-4.777 35.351v4.945c0 25.138.808 31.846 9.23 35.49Zm-12.852-40.436c0-21.958 0-26.53-1.87-35.932-1.984 9.401-1.984 13.974-1.984 35.932v4.945c0 21.981 0 26.67 1.985 36.07 1.869-9.516 1.869-14.089 1.869-36.07v-4.945Zm38.187-16.318c0-9.98-5.722-18.22-14.121-19.846 5.122 2.809 10.037 9.981 10.037 20.195 0 9.052-1.753 14.09-4.315 17.734 5.123-3.993 8.4-9.262 8.4-18.083Zm-2.676 31.592c-1.985-3.157-5.376-6.801-8.884-9.865 1.177 4.108 2.93 7.869 5.261 11.629l.808 1.3c8.168 12.813 17.167 21.146 25.82 23.258-8.307-5.989-14.26-12.441-22.198-25.022l-.807-1.3Zm6.299-2.345c-2.33-3.04-5.03-5.872-8.284-8.1 1.27 2.808 3.023 5.756 5.008 8.936l.83 1.277c7.938 12.58 20.305 24.442 29.42 25.858-7.707-4.712-15.875-13.277-25.451-25.974l-1.523-1.997ZM159.88 5.524c2.562 3.738 4.777 9.494 4.777 17.85 0 8.333-1.523 13.858-4.2 17.734 4.661-3.76 8.169-10.213 8.169-17.966 0-7.869-3.139-14.113-8.746-17.618Zm10.038 30.524c3.622-3.273 6.414-8.1 6.414-13.393 0-5.385-2.215-10.097-6.184-12.906 1.293 2.809 2.33 7.637 2.33 13.161 0 5.989-1.268 10.097-2.56 13.138Z" id="Fill-56" fill="#F4B92F"/><path d="M161.15 53.69c-1.985-3.181-3.738-6.129-5.008-8.938 3.254 2.229 5.954 5.06 8.284 8.101l1.523 1.997c9.576 12.697 17.744 21.262 25.45 25.974-9.114-1.416-21.481-13.277-29.419-25.858l-.83-1.277Z" id="Fill-58" fill="#1C1C1C"/><path d="M258.753 42.524c0-17.502 4.915-27.367 10.291-32.195-3.161 6.221-6.184 15.274-6.184 32.195 0 16.922 4.546 26.787 7.707 32.775-5.838-5.64-11.814-15.39-11.814-32.775" id="Fill-60" fill="#1C1C1C"/><path d="M71.137 41.456c0 20.334-5.607 33.727-15.898 38.416 6.9-5.989 11.791-18.082 11.791-38.416 0-20.31-7.107-31.243-15.044-38.3 11.076 5.177 19.151 18.338 19.151 38.3" id="Fill-62" fill="#1C1C1C"/><path d="M322.068 41.456c0-16.921-4.568-26.786-7.706-32.775 5.837 5.64 11.79 15.39 11.79 32.775 0 17.502-4.684 27.39-10.037 32.195 3.138-6.22 5.953-15.273 5.953-32.195" id="Fill-64" fill="#1C1C1C"/><path d="M129.746 44.869c0 22.794 0 29.479 5.722 35.49-8.422-3.644-9.23-10.352-9.23-35.49v-4.945c0-25.37 1.293-30.779 4.777-35.351-1.039 6.337-1.27 12.58-1.27 35.351v4.945Z" id="Fill-66" fill="#1C1C1C"/><path d="M146.682 3.76c8.399 1.625 14.121 9.865 14.121 19.846 0 8.821-3.276 14.09-8.399 18.083 2.562-3.645 4.315-8.682 4.315-17.734 0-10.214-4.915-17.386-10.037-20.195" id="Fill-68" fill="#1C1C1C"/><path d="M333.86 41.456c0 7.985-2.1 15.738-6.67 22.562 1.985-6.94 2.816-13.509 2.816-22.562 0-9.029-.946-15.853-3.046-22.794 4.915 6.709 6.9 14.81 6.9 22.794" id="Fill-70" fill="#1C1C1C"/><path d="M217.081 80.94c1.87-9.517 1.87-14.09 1.87-36.071v-4.945c0-21.958 0-26.53-1.87-35.932V1.625c7.13 0 16.498-.116 22.197-.348l.231 1.532c-1.753.696-5.491 2.948-7.36 6.708-.947 1.88-1.87 4.805-2.1 8.797-.231 4.944-.485 10.933-.485 19.614 0 15.993.139 25.858.6 29.85.462 3.993 1.27 6.57 3.023 9.401 1.407 2.345 3.622 3.993 6.091 5.06l-.369 1.51c-6.299-.117-15.852-.326-21.85-.349l.022-2.46Zm5.492-36.071c0 25.138.807 31.243 8.283 35.49-4.776-6.592-4.776-12.696-4.776-35.49v-4.945c0-22.77 0-29.014 4.776-35.351-7.245 4.572-8.283 9.98-8.283 35.351v4.945Z" id="Fill-72" fill="#F4B92F"/><path d="M399.713 33.123c6.991 7.289 11.56 12.697 19.497 23.375-7.822-6.685-12.737-11.862-21.828-21.03l-3.161-3.18c-9.691-9.981-16.821-18.663-21.597-27.831 7.222 7.869 15.644 16.689 24.043 25.486l3.046 3.18Z" id="Fill-74" fill="#1C1C1C"/><path d="M19.636 42.524c0-20.333 6.069-33.727 16.337-38.415C29.096 10.097 23.72 22.19 23.72 42.524c0 20.31 8.053 31.243 15.068 38.3-10.638-5.176-19.152-18.338-19.152-38.3" id="Fill-76" fill="#1C1C1C"/><path d="M215.097 44.869v-4.945c0-21.958 0-26.53 1.984-35.932 1.87 9.401 1.87 13.974 1.87 35.932v4.945c0 21.981 0 26.554-1.87 36.07-1.984-9.4-1.984-14.089-1.984-36.07" id="Fill-78" fill="#1C1C1C"/><path d="M118.762 44.869v-4.945c0-21.958 0-26.53 1.985-35.932 1.869 9.401 1.869 13.974 1.869 35.932v4.945c0 21.981 0 26.554-1.87 36.07-1.984-9.4-1.984-14.089-1.984-36.07" id="Fill-80" fill="#1C1C1C"/></g></g></g></g></g></svg>