<svg width="332" height="65" xmlns="http://www.w3.org/2000/svg"><g id="Page-1" stroke="none" stroke-width="1" fill="none" fill-rule="evenodd"><g id="Medium" transform="translate(-22 -4377)" fill="#F4B92F" fill-rule="nonzero"><g id="footer" transform="translate(20.5 3915)"><g id="Fichier-1" transform="translate(1.5 462)"><path d="M10.706 56.928C3.994 51.358 0 43.286 0 33.228 0 20.56 5.605 10.68 15.204 5.02 20.724 1.792 26.665 0 34.15 0c7.484 0 15.539 2.52 21.664 7.806C62.862 13.908 66 22.53 66 31.86c0 12.844-6.108 22.62-16.479 28.65C45.443 62.854 39.419 65 33.646 65c-8.575 0-16.73-2.874-22.94-8.09v.018ZM5.69 32.5c0-6.919.587-11.94 2.03-17.243-3.306 5.215-4.833 11.14-4.833 17.243 0 6.103 1.444 12.117 5.018 17.42C6.377 44.618 5.689 39.42 5.689 32.5Zm5.772 0c0-12.933 2.216-19.851 4.498-24.606-3.91 3.69-7.468 11.23-7.468 24.606 0 13.376 4.33 20.738 8.575 25.05-2.299-4.578-5.605-12.117-5.605-25.05Zm5.773 0c0-15.54 3.91-24.783 8.91-29.36-7.467 3.584-11.897 13.82-11.897 29.36s6.192 25.315 13.928 29.271c-5.101-5.393-10.958-13.73-10.958-29.271h.017Zm28.629.62c0-16.16-5.353-27.567-14.013-30.796C24.886 5.73 20.137 16.96 20.137 31.418c0 15.984 6.88 27.657 14.617 31.063 6.796-4.045 11.125-15.807 11.125-29.36h-.016Zm5.856-1.436c0-15.257-5.856-25.315-13.928-29.271 5.773 5.393 10.958 13.73 10.958 29.271 0 15.54-3.574 24.783-8.575 29.36 7.467-3.584 11.545-13.82 11.545-29.36Zm5.773 0c0-13.287-4.33-20.738-8.575-25.05 2.299 4.578 5.605 12.117 5.605 25.05s-2.03 19.851-4.33 24.606c3.91-3.69 7.3-11.23 7.3-24.606Zm5.605 0c0-6.103-1.443-12.294-5.018-17.42 1.527 5.303 2.215 10.501 2.215 17.42 0 6.919-.587 11.94-2.03 17.243 3.306-5.215 4.85-11.14 4.85-17.243h-.017ZM124.72 63.607c-3.037-1.222-5.817-3.217-8.082-5.66-5.732-6.176-9.731-14.193-13.37-22.21-.789 0-2.179 0-2.951-.086v4.009c0 4.008.086 7.844.429 11.491.429 4.18 1.304 5.918 2.608 7.656 2.077 2.7 5.818 3.75 8.513 4.18l-.086 1.222c-4.085 0-15.634-.172-21.195-.172-5.56 0-13.643.086-17.282.172l-.086-1.05c1.648-.602 4.342-2.185 5.647-4.094 1.561-2.27 2.35-5.23 2.694-10.27.172-2.787.343-8.189.343-11.406V34c0-6.348 0-11.922-.257-16.102-.258-4.18-.6-6.176-1.82-8.447C78.95 7.8 77.647 6.406 76.17 5.53 75.123 4.927 73.218 4.22 72 4.135l.086-1.049c3.466.086 12.768.172 16.681.172 5.046 0 11.378-.258 17.024-.258 9.388 0 15.206.172 20.766 2.615 5.732 2.529 8.941 6.881 8.941 12.971 0 8.963-6.779 14.279-13.986 16.55 3.74 2.872 7.911 9.496 13.986 16.102 4.17 4.524 8.77 8.446 12.769 10.528.515 0 1.132-.086 1.561-.172l.172 1.135C146.62 64.123 140.355 65 134.28 65c-3.656 0-7.294-.516-9.56-1.393ZM87.018 35.393V31.73c0-18.803-.79-22.811-6.694-26.2 4.085 4.696 4.085 9.324 4.085 26.2v3.664c0 16.894 0 21.418-4.085 26.304 6.076-3.131 6.694-7.655 6.694-26.304Zm5.56 0V31.73c0-16.274 0-19.68-1.39-26.647-1.476 6.967-1.476 10.356-1.476 26.647v3.664c0 16.275 0 19.767 1.476 26.734 1.39-7.053 1.39-10.442 1.39-26.734Zm5.303 0V31.73c0-16.893.171-21.504.96-26.2-2.608 3.389-3.569 7.397-3.569 26.2v3.664c0 18.631.6 23.603 6.865 26.304-4.256-4.438-4.256-9.41-4.256-26.304Zm13.558-2.27c2.265-2.787 3.74-6.968 3.74-12.455 0-4.095-1.132-7.57-2.78-10.099-2.179-3.303-4.856-4.696-7.55-5.23-1.476.087-2.437.173-3.467.689-.961 6.795-1.047 16.016-1.047 24.29v1.91c1.733.688 5.475 1.05 7.912 1.05 1.132 0 2.265-.087 3.209-.173l-.017.018Zm3.295 13.504-.79-1.221c-2.076-3.303-5.045-7.484-7.826-9.668 1.905 4.094 3.57 7.31 5.56 10.717l.602 1.05c5.817 9.926 10.691 12.885 15.634 14.45-3.827-2.529-7.294-6.09-13.197-15.328h.017Zm6.247-26.992c0-7.397-4.257-13.504-10.503-14.708 3.827 2.081 7.465 7.397 7.465 14.984 0 6.709-1.304 10.442-3.21 13.143 3.828-2.96 6.248-6.881 6.248-13.401v-.018Zm-1.39 24.377-.601-.963c-1.476-2.357-3.999-5.058-6.607-7.311.875 3.044 2.18 5.831 3.912 8.618l.601.964c6.075 9.496 12.768 15.672 19.204 17.237-6.161-4.438-10.589-9.22-16.51-18.545Zm5.217-1.221-1.133-1.48c-1.733-2.27-3.741-4.352-6.161-6.004.96 2.082 2.265 4.267 3.741 6.624l.6.963c5.904 9.324 15.12 18.115 21.882 19.147-5.732-3.475-11.807-9.84-18.93-19.25Zm1.99-23.517c0-5.832-2.35-10.442-6.521-13.057 1.905 2.787 3.57 7.053 3.57 13.23 0 6.175-1.133 10.27-3.124 13.142 3.467-2.787 6.075-7.569 6.075-13.315Zm5.732-.344c0-4.008-1.647-7.483-4.599-9.582.961 2.082 1.733 5.66 1.733 9.754 0 4.439-.96 7.483-1.905 9.754 2.695-2.443 4.771-6.004 4.771-9.926Z" id="Shape"/><path d="M147.355 60.901c1.954-.89 3.6-1.936 4.57-3.174 1.63-2.11 2.695-4.761 3.018-7.325.323-2.39.565-7.237.565-20.562 0-13.324-.08-20.039-2.05-23.649-1.97-3.61-4.57-4.674-6.458-5.127L147.08 0c3.843 0 10.947.262 16.5.262 5.07 0 12.093-.088 16.259-.262L180 1.151c-1.227.523-3.842 2.215-5.15 5.04-.662 1.413-1.308 3.628-1.47 6.628a318.341 318.341 0 0 0-.322 14.737c0 11.998.08 19.41.403 22.428.323 3 .904 4.935 2.131 7.063.985 1.761 2.535 3 4.247 3.802L179.596 62c-4.746-.087-12.092-.262-16.177-.262-4.488 0-12.754.175-16.015.262l-.081-1.064.032-.035Zm13.077-28.166v-3.714c0-19.063-.742-23.126-6.296-26.562 3.842 4.761 3.842 9.453 3.842 26.562v3.714c0 17.127 0 21.713-3.842 26.666 5.715-3.174 6.296-7.76 6.296-26.666Zm5.231 0v-3.714c0-16.499 0-19.952-1.307-27.015-1.389 7.063-1.389 10.499-1.389 27.015v3.714c0 16.499 0 20.04 1.389 27.102 1.307-7.15 1.307-10.586 1.307-27.102Zm4.99 0v-3.714c0-17.127 0-21.8 3.357-26.562-5.07 3.436-5.796 7.5-5.796 26.562v3.714c0 18.888.565 23.475 5.796 26.666-3.358-4.935-3.358-9.54-3.358-26.666ZM197.706 56.91C190.994 51.34 187 43.268 187 33.21c0-12.667 5.605-22.53 15.204-28.19C207.724 1.792 213.665 0 221.15 0c7.484 0 15.539 2.52 21.664 7.806C249.862 13.908 253 22.53 253 31.86c0 12.844-6.108 22.62-16.479 28.65C232.443 62.854 226.419 65 220.646 65c-8.575 0-16.73-2.874-22.94-8.09Zm-5.017-24.428c0-6.918.587-11.939 2.03-17.243-3.306 5.215-4.833 11.14-4.833 17.243 0 6.103 1.444 12.117 5.018 17.421-1.527-5.304-2.215-10.502-2.215-17.42Zm5.772 0c0-12.932 2.216-19.851 4.498-24.605-3.91 3.69-7.468 11.23-7.468 24.605 0 13.376 4.33 20.739 8.575 25.05-2.299-4.578-5.605-12.117-5.605-25.05Zm5.773 0c0-15.54 3.91-24.783 8.91-29.36-7.467 3.584-11.897 13.82-11.897 29.36s6.21 25.315 13.928 29.272c-5.101-5.393-10.958-13.731-10.958-29.272h.017Zm28.629.621c0-16.161-5.353-27.568-14.013-30.797-6.964 3.406-11.73 14.636-11.73 29.094 0 15.984 6.88 27.657 14.617 31.063 6.796-4.045 11.126-15.806 11.126-29.36Zm5.856-1.437c0-15.256-5.856-25.315-13.928-29.271 5.773 5.393 10.958 13.73 10.958 29.271 0 15.54-3.558 24.783-8.575 29.36 7.467-3.583 11.545-13.82 11.545-29.36Zm5.773 0c0-13.287-4.33-20.738-8.575-25.049 2.299 4.577 5.605 12.117 5.605 25.05 0 12.932-2.03 19.85-4.33 24.605 3.91-3.69 7.3-11.23 7.3-24.606Zm5.605 0c0-6.102-1.443-12.294-5.018-17.42 1.527 5.304 2.215 10.502 2.215 17.42 0 6.919-.587 11.94-2.03 17.244 3.306-5.216 4.833-11.141 4.833-17.244ZM273.02 18.174h-.348c-.262 2.798-.349 6.219-.349 8.838 0 3.51 0 8.018.262 12.348.802 11.902 3.347 15.234 6.171 18.21 2.023 2.067 4.673 3.884 8.037 4.686l-.087 1.087c-2.11 0-10.495-.178-16.056-.178-4.847 0-11.123.178-13.669.178l-.087-1.087c1.674-.82 3.173-1.71 5.387-3.973 2.301-2.441 5.387-7.484 6.172-14.79.802-7.037.802-12.9.802-21.56 0-8.659-2.912-13.345-5.998-16.231-3.26-3.065-6.712-4.063-9.257-4.597l.087-1.087c3.522.089 8.124.178 12.274.178 5.213 0 10.408-.178 12.97-.178 1.413 0 2.476 0 3.522.267 11.56 12.9 21.531 23.627 33.439 35.351.174-1.621.261-3.6.261-5.506 0-3.332-.087-6.307-.435-9.194-.61-5.506-2.023-9.657-4.063-12.633-2.3-3.42-5.387-5.951-9.972-7.216L302.17 0c3.888 0 10.583.178 15.36.178 5.02 0 11.297-.089 14.383-.178L332 1.087c-2.197.998-4.672 2.976-6.259 4.953-1.586 2.067-2.911 4.597-3.626 6.575-1.15 3.243-1.674 6.486-1.935 9.461-.349 3.51-.523 8.304-.523 15.876v12.17c0 4.953.174 10.281.436 14.61l-2.11.268c-15.185-16.143-32.48-34.353-44.91-46.897l-.052.071Zm-1.324 37.614c1.15 2.798 3.26 4.864 6.084 4.864-3.888-2.975-6.538-8.837-7.148-14.343-.889 5.506-3.347 11.368-7.148 14.343 2.65 0 4.847-2.066 5.997-4.953.175 2.53.523 4.152 1.151 5.506.523-1.354.802-2.976 1.064-5.417Zm22.42-23.537-2.476-2.53c-9.362-9.836-17.556-20.473-27.18-27.137 6.538 6.681 7.148 9.835 19.23 22.54l8.56 9.015a981.154 981.154 0 0 0 13.407 13.702l10.757 10.994c-6.538-9.461-15.621-19.742-22.333-26.602l.035.018Zm3.888-4.063-2.476-2.53c-7.845-8.125-14.993-16.143-22.682-23.36 5.387 8.66 12.884 17.498 20.642 25.605l2.389 2.441c6.886 7.038 13.232 13.524 20.467 19.85-5.823-7.84-11.384-14.879-18.358-22.006h.018Zm3.521-3.706-2.301-2.441c-6.346-6.771-12.71-13.524-18.184-19.564 3.627 7.038 8.996 13.702 16.319 21.381l2.388 2.441c6.886 7.038 10.582 10.994 16.493 16.143-5.998-8.214-9.45-12.347-14.732-17.942l.017-.018ZM325.27 2.655c-2.65 0-4.846 2.067-5.997 4.953-.174-2.53-.523-4.151-1.15-5.505-.524 1.354-.802 2.975-1.064 5.416-1.15-2.797-3.26-4.864-6.084-4.864 3.8 2.886 6.537 8.749 7.147 14.254.89-5.505 3.435-11.279 7.148-14.254Z" id="Shape"/></g></g></g></g></svg>