<?xml version="1.0" encoding="UTF-8"?>
<svg width="332px" height="65px" viewBox="0 0 332 65" version="1.1" xmlns="http://www.w3.org/2000/svg" xmlns:xlink="http://www.w3.org/1999/xlink">
    <title>Fichier 1</title>
    <g id="Page-1" stroke="none" stroke-width="1" fill="none" fill-rule="evenodd">
        <g id="Medium" transform="translate(-22.000000, -4377.000000)" fill="#F4B92F" fill-rule="nonzero">
            <g id="footer" transform="translate(20.500000, 3915.000000)">
                <g id="Fichier-1" transform="translate(1.500000, 462.000000)">
                    <path d="M10.706331,56.9282205 C3.99389779,51.3578057 0,43.2860262 0,33.2273472 C0,20.5608624 5.60488177,10.6795852 15.2036613,5.02046943 C20.7246377,1.79175764 26.6651411,0 34.1495042,0 C41.6338673,0 49.6887872,2.5191048 55.8138825,7.80567686 C62.8619375,13.9082969 66,22.5300218 66,31.8613537 C66,44.7052402 59.8916857,54.4800764 49.5209764,60.5117358 C45.4431732,62.8534389 39.4187643,65 33.6460717,65 C25.0709382,65 16.9153318,62.1260917 10.706331,56.9104803 L10.706331,56.9282205 Z M5.68878719,32.5 C5.68878719,25.5813319 6.2761251,20.5608624 7.71929825,15.2565502 C4.41342487,20.4721616 2.8863463,26.3973799 2.8863463,32.5 C2.8863463,38.6026201 4.32951945,44.6165393 7.90389016,49.9208515 C6.37681159,44.6165393 5.68878719,39.4186681 5.68878719,32.5 Z M11.4614798,32.5 C11.4614798,19.5674127 13.6765828,12.6487445 15.9588101,7.89437773 C12.0488177,11.5843341 8.49122807,19.1239083 8.49122807,32.5 C8.49122807,45.8760917 12.8207475,53.2382642 17.0663616,57.5491266 C14.7673532,52.9721616 11.4614798,45.4325873 11.4614798,32.5 Z M17.2341724,32.5 C17.2341724,16.959607 21.1441648,7.71697598 26.1449275,3.14001092 C18.6773455,6.7235262 14.2471396,16.959607 14.2471396,32.5 C14.2471396,48.040393 20.4393593,57.8152293 28.1754386,61.7712882 C23.0739893,56.3782751 17.2173913,48.040393 17.2173913,32.5 L17.2341724,32.5 Z M45.8627002,33.1209061 C45.8627002,16.959607 40.5095347,5.55267467 31.8504958,2.32396288 C24.8863463,5.73007642 20.1372998,16.959607 20.1372998,31.4178493 C20.1372998,47.4017467 27.0175439,59.0747817 34.7536232,62.4808952 C41.5499619,58.4361354 45.8794813,46.6743996 45.8794813,33.1209061 L45.8627002,33.1209061 Z M51.7192982,31.683952 C51.7192982,16.4274017 45.8627002,6.36872271 37.7909992,2.41266376 C43.5636918,7.80567686 48.7490465,16.143559 48.7490465,31.683952 C48.7490465,47.224345 45.1746758,56.466976 40.173913,61.043941 C47.641495,57.4604258 51.7192982,47.224345 51.7192982,31.683952 Z M57.4919908,31.683952 C57.4919908,18.3965611 53.1624714,10.9456878 48.9168574,6.63482533 C51.2158658,11.2117904 54.5217391,18.7513646 54.5217391,31.683952 C54.5217391,44.6165393 52.4912281,51.5352074 50.1922197,56.2895742 C54.1022121,52.5996179 57.4919908,45.0600437 57.4919908,31.683952 Z M63.0968726,31.683952 C63.0968726,25.5813319 61.6536995,19.3900109 58.0793288,14.2631004 C59.6064073,19.5674127 60.2944317,24.7652838 60.2944317,31.683952 C60.2944317,38.6026201 59.7070938,43.6230895 58.2639207,48.9274017 C61.5697941,43.7117904 63.1136537,37.7865721 63.1136537,31.683952 L63.0968726,31.683952 Z" id="Shape"></path>
                    <path d="M124.720792,63.6065483 C121.683168,62.3851276 118.90297,60.3895671 116.637624,57.9467259 C110.905611,51.7708102 106.906931,43.754162 103.268647,35.7375139 C102.479208,35.7375139 101.089109,35.7375139 100.316832,35.6514983 L100.316832,39.6598224 C100.316832,43.6681465 100.40264,47.5044395 100.745875,51.1514983 C101.174917,55.3318535 102.050165,57.0693674 103.354455,58.8068812 C105.431023,61.5077691 109.172277,62.5571587 111.866667,62.9872364 L111.780858,64.208657 C107.69637,64.208657 96.1465347,64.036626 90.5861386,64.036626 C85.0257426,64.036626 76.9425743,64.1226415 73.3042904,64.208657 L73.2184818,63.1592675 C74.8660066,62.5571587 77.560396,60.9744728 78.8646865,59.0649279 C80.4264026,56.7941176 81.2158416,53.8351831 81.5590759,48.7946726 C81.7306931,46.0077691 81.9023102,40.6059933 81.9023102,37.3890122 L81.9023102,34 C81.9023102,27.6520533 81.9023102,22.0782464 81.6448845,17.8978912 C81.3874587,13.7175361 81.0442244,11.7219756 79.8257426,9.45116537 C78.950495,7.79966704 77.6462046,6.40621532 76.170297,5.52885683 C75.1234323,4.92674806 73.2184818,4.22142064 72,4.13540511 L72.0858086,3.08601554 C75.5524752,3.17203108 84.8541254,3.25804661 88.7669967,3.25804661 C93.8125413,3.25804661 100.145215,3 105.791419,3 C115.178878,3 120.9967,3.17203108 126.557096,5.61487236 C132.289109,8.14372919 135.49835,12.4961154 135.49835,18.5860155 C135.49835,27.5488346 128.719472,32.8645949 121.511551,35.1354051 C125.252805,38.0083241 129.423102,44.6315205 135.49835,51.2375139 C139.668647,55.7619312 144.267987,59.6842397 148.266667,61.7658158 C148.781518,61.7658158 149.39934,61.6798002 149.828383,61.5937847 L150,62.7291898 C146.619142,64.1226415 140.355116,65 134.279868,65 C130.624422,65 126.986139,64.4839068 124.720792,63.6065483 L124.720792,63.6065483 Z M87.0165017,35.3934517 L87.0165017,31.7291898 C87.0165017,12.9261931 86.2270627,8.91786903 80.3234323,5.52885683 C84.4079208,10.2253052 84.4079208,14.8529412 84.4079208,31.7291898 L84.4079208,35.3934517 C84.4079208,52.2869034 84.4079208,56.8113208 80.3234323,61.6970033 C86.3986799,58.5660377 87.0165017,54.0416204 87.0165017,35.3934517 Z M92.5768977,35.3934517 L92.5768977,31.7291898 C92.5768977,15.4550499 92.5768977,12.0488346 91.1867987,5.08157603 C89.7108911,12.0488346 89.7108911,15.4378468 89.7108911,31.7291898 L89.7108911,35.3934517 C89.7108911,51.6675916 89.7108911,55.1598224 91.1867987,62.127081 C92.5768977,55.0738069 92.5768977,51.6847947 92.5768977,35.3934517 Z M97.879868,35.3934517 L97.879868,31.7291898 C97.879868,14.8357381 98.0514851,10.2253052 98.8409241,5.52885683 C96.2323432,8.91786903 95.2712871,12.9261931 95.2712871,31.7291898 L95.2712871,35.3934517 C95.2712871,54.0244173 95.8719472,58.9961154 102.135974,61.6970033 C97.879868,57.2586016 97.879868,52.2869034 97.879868,35.3934517 L97.879868,35.3934517 Z M111.437624,33.1226415 C113.70297,30.3357381 115.178878,26.1553829 115.178878,20.6675916 C115.178878,16.5732519 114.046205,13.0982242 112.39868,10.5693674 C110.219142,7.2663707 107.541914,5.87291898 104.847525,5.33962264 C103.371617,5.42563818 102.410561,5.51165372 101.380858,6.02774695 C100.419802,12.8229745 100.333993,22.0438402 100.333993,30.318535 L100.333993,32.2280799 C102.067327,32.9162042 105.808581,33.2774695 108.245545,33.2774695 C109.378218,33.2774695 110.510891,33.1914539 111.454785,33.1054384 L111.437624,33.1226415 Z M114.732673,46.627081 L113.943234,45.4056604 C111.866667,42.1026637 108.89769,37.9223085 106.117492,35.7375139 C108.022442,39.8318535 109.687129,43.0488346 111.677888,46.4550499 L112.278548,47.5044395 C118.09637,57.4306326 122.970297,60.3895671 127.912871,61.9550499 C124.085809,59.4261931 120.619142,55.8651498 114.715512,46.627081 L114.732673,46.627081 Z M120.979538,19.6354051 C120.979538,12.2380688 116.723432,6.13096559 110.476568,4.92674806 C114.30363,7.00832408 117.941914,12.3240844 117.941914,19.9106548 C117.941914,26.6198668 116.637624,30.3529412 114.732673,33.0538291 C118.559736,30.0948946 120.979538,26.172586 120.979538,19.6526082 L120.979538,19.6354051 Z M119.589439,44.0122087 L118.988779,43.0488346 C117.512871,40.6920089 114.990099,37.991121 112.381518,35.7375139 C113.256766,38.7824639 114.561056,41.5693674 116.294389,44.3562708 L116.89505,45.3196448 C122.970297,54.8157603 129.663366,60.9916759 136.09901,62.5571587 C129.937954,58.1187569 125.510231,53.336293 119.589439,44.0122087 L119.589439,44.0122087 Z M124.806601,42.790788 L123.673927,41.3113208 C121.940594,39.0405105 119.932673,36.9589345 117.512871,35.3074362 C118.473927,37.3890122 119.778218,39.5738069 121.254125,41.9306326 L121.854785,42.8940067 C127.758416,52.218091 136.974257,61.008879 143.735974,62.0410655 C138.00396,58.5660377 131.928713,52.2008879 124.806601,42.790788 L124.806601,42.790788 Z M126.79736,19.2741398 C126.79736,13.4422863 124.446205,8.8318535 120.275908,6.21698113 C122.180858,9.00388457 123.845545,13.2702553 123.845545,19.4461709 C123.845545,25.6220866 122.712871,29.7164262 120.722112,32.5893452 C124.188779,29.8024417 126.79736,25.0199778 126.79736,19.2741398 L126.79736,19.2741398 Z M132.529373,18.9300777 C132.529373,14.9217536 130.881848,11.4467259 127.930033,9.34794673 C128.891089,11.4295228 129.663366,15.0077691 129.663366,19.1021088 C129.663366,23.5405105 128.70231,26.5854606 127.758416,28.8562708 C130.452805,26.4134295 132.529373,22.8523862 132.529373,18.9300777 Z" id="Shape"></path>
                    <path d="M147.355186,60.9012658 C149.308708,60.0118143 150.955479,58.9654008 151.924168,57.7271449 C153.554795,55.6168776 154.620352,52.9659634 154.943249,50.4022504 C155.266145,48.0129395 155.508317,43.164557 155.508317,29.840225 C155.508317,16.5158931 155.427593,9.80140647 153.457926,6.19127989 C151.488258,2.58115331 148.888943,1.51729958 147,1.06385373 L147.080724,0 C150.92319,0 158.026908,0.261603376 163.580724,0.261603376 C168.650196,0.261603376 175.67319,0.17440225 179.838552,0 L180,1.15105485 C178.772994,1.6742616 176.157534,3.36596343 174.849804,6.19127989 C174.187867,7.60393812 173.542074,9.81884669 173.380626,12.8185654 C173.219178,16.5333333 173.05773,21.0329114 173.05773,27.5555556 C173.05773,39.5544304 173.138454,46.966526 173.46135,49.983685 C173.784247,52.9834037 174.36546,54.9192686 175.592466,57.0469761 C176.577299,58.8084388 178.127202,60.0466948 179.838552,60.8489451 L179.59638,62 C174.849804,61.9127989 167.503914,61.7383966 163.419276,61.7383966 C158.931018,61.7383966 150.664873,61.9127989 147.40362,62 L147.322896,60.9361463 L147.355186,60.9012658 Z M160.432485,32.7353024 L160.432485,29.0205345 C160.432485,9.9583685 159.689824,5.89479606 154.136008,2.45907173 C157.978474,7.22025316 157.978474,11.9116737 157.978474,29.0205345 L157.978474,32.7353024 C157.978474,49.8616034 157.978474,54.4483826 154.136008,59.4014065 C159.851272,56.2272855 160.432485,51.6405063 160.432485,32.7353024 Z M165.663405,32.7353024 L165.663405,29.0205345 C165.663405,12.5220816 165.663405,9.06891702 164.355675,2.00562588 C162.967221,9.06891702 162.967221,12.5046414 162.967221,29.0205345 L162.967221,32.7353024 C162.967221,49.2337553 162.967221,52.774121 164.355675,59.8374121 C165.663405,52.6869198 165.663405,49.2511955 165.663405,32.7353024 Z M170.652153,32.7353024 L170.652153,29.0205345 C170.652153,11.8942335 170.652153,7.22025316 174.010274,2.45907173 C168.940802,5.89479606 168.214286,9.9583685 168.214286,29.0205345 L168.214286,32.7353024 C168.214286,51.6230661 168.779354,56.2098453 174.010274,59.4014065 C170.652153,54.4658228 170.652153,49.8616034 170.652153,32.7353024 Z" id="Shape"></path>
                    <path d="M197.706331,56.9104803 C190.993898,51.3400655 187,43.268286 187,33.209607 C187,20.5431223 192.604882,10.6795852 202.203661,5.02046943 C207.724638,1.79175764 213.665141,0 221.149504,0 C228.633867,0 236.688787,2.5191048 242.813883,7.80567686 C249.861937,13.9082969 253,22.5300218 253,31.8613537 C253,44.7052402 246.891686,54.4800764 236.520976,60.5117358 C232.443173,62.8534389 226.418764,65 220.646072,65 C212.070938,65 203.915332,62.1260917 197.706331,56.9104803 Z M192.688787,32.4822598 C192.688787,25.5635917 193.276125,20.5431223 194.719298,15.23881 C191.413425,20.4544214 189.886346,26.3796397 189.886346,32.4822598 C189.886346,38.5848799 191.329519,44.5987991 194.90389,49.9031114 C193.376812,44.5987991 192.688787,39.4009279 192.688787,32.4822598 Z M198.46148,32.4822598 C198.46148,19.5496725 200.676583,12.6310044 202.95881,7.87663755 C199.048818,11.5665939 195.491228,19.1061681 195.491228,32.4822598 C195.491228,45.8583515 199.820748,53.220524 204.066362,57.5313865 C201.767353,52.9544214 198.46148,45.4148472 198.46148,32.4822598 Z M204.234172,32.4822598 C204.234172,16.9418668 208.144165,7.69923581 213.144928,3.12227074 C205.677346,6.70578603 201.24714,16.9418668 201.24714,32.4822598 C201.24714,48.0226528 207.45614,57.7974891 215.175439,61.753548 C210.073989,56.3605349 204.217391,48.0226528 204.217391,32.4822598 L204.234172,32.4822598 Z M232.8627,33.1031659 C232.8627,16.9418668 227.509535,5.5349345 218.850496,2.30622271 C211.886346,5.71233624 207.120519,16.9418668 207.120519,31.4001092 C207.120519,47.3840066 214.000763,59.0570415 221.736842,62.463155 C228.533181,58.4183952 232.8627,46.6566594 232.8627,33.1031659 Z M238.719298,31.6662118 C238.719298,16.4096616 232.8627,6.35098253 224.790999,2.39492358 C230.563692,7.78793668 235.749047,16.1258188 235.749047,31.6662118 C235.749047,47.2066048 232.191457,56.4492358 227.173913,61.0262009 C234.641495,57.4426856 238.719298,47.2066048 238.719298,31.6662118 L238.719298,31.6662118 Z M244.491991,31.6662118 C244.491991,18.378821 240.162471,10.9279476 235.916857,6.61708515 C238.215866,11.1940502 241.521739,18.7336245 241.521739,31.6662118 C241.521739,44.5987991 239.491228,51.5174672 237.19222,56.2718341 C241.102212,52.5818777 244.491991,45.0423035 244.491991,31.6662118 L244.491991,31.6662118 Z M250.096873,31.6662118 C250.096873,25.5635917 248.653699,19.3722707 245.079329,14.2453603 C246.606407,19.5496725 247.294432,24.7475437 247.294432,31.6662118 C247.294432,38.5848799 246.707094,43.6053493 245.263921,48.9096616 C248.569794,43.6940502 250.096873,37.7688319 250.096873,31.6662118 L250.096873,31.6662118 Z" id="Shape"></path>
                    <path d="M273.020563,18.1743421 L272.671882,18.1743421 C272.410371,20.9717654 272.323201,24.392818 272.323201,27.0120614 C272.323201,30.5222039 272.323201,35.0301535 272.584712,39.3599232 C273.386679,51.2623355 275.932052,54.5942982 278.75637,57.5699013 C280.778722,59.6367873 283.428699,61.4542215 286.793473,62.2560307 L286.706303,63.3429276 C284.596781,63.3429276 276.210997,63.1647478 270.649531,63.1647478 C265.802861,63.1647478 259.526598,63.3429276 256.981225,63.3429276 L256.894055,62.2560307 C258.567725,61.4364035 260.067054,60.5455044 262.28118,58.2826206 C264.582477,55.841557 267.668306,50.799068 268.452839,43.4936952 C269.254806,36.4555921 269.254806,30.5934759 269.254806,21.9339364 C269.254806,13.2743969 266.343317,8.58826754 263.257488,5.70175439 C259.997318,2.6370614 256.545373,1.63925439 254,1.10471491 L254.08717,0.0178179825 C257.608851,0.106907895 262.211444,0.195997807 266.360751,0.195997807 C271.573536,0.195997807 276.768887,0.0178179825 279.331694,0.0178179825 C280.743853,0.0178179825 281.807331,0.0178179825 282.853375,0.285087719 C294.412159,13.185307 304.384443,23.9117325 316.291909,35.6359649 C316.466249,34.0145285 316.55342,32.0367325 316.55342,30.1302083 C316.55342,26.7982456 316.466249,23.8226425 316.117568,20.9361294 C315.507376,15.4303728 314.095217,11.2787829 312.055431,8.30317982 C309.754135,4.88212719 306.668306,2.35197368 302.083147,1.08689693 L302.170317,0 C306.058114,0 312.752794,0.178179825 317.529727,0.178179825 C322.550738,0.178179825 328.827,0.0890899123 331.91283,0 L332,1.08689693 C329.803308,2.08470395 327.327671,4.0625 325.741171,6.04029605 C324.154671,8.10718202 322.829683,10.6373355 322.114886,12.6151316 C320.964238,15.8580044 320.441216,19.1008772 320.179705,22.0764803 C319.831024,25.5866228 319.656683,30.3796601 319.656683,37.9523026 L319.656683,50.1219846 C319.656683,55.0753838 319.831024,60.4029605 320.092535,64.7327303 L317.983013,65 C302.797944,48.8569079 285.503353,30.6469298 273.072865,18.1030702 L273.020563,18.1743421 Z M271.695574,55.7881031 C272.846223,58.5855263 274.955744,60.6524123 277.780063,60.6524123 C273.892266,57.6768092 271.242289,51.814693 270.632097,46.3089364 C269.742959,51.814693 267.284756,57.6768092 263.484131,60.6524123 C266.134108,60.6524123 268.3308,58.5855263 269.481448,55.6990132 C269.655789,58.2291667 270.00447,59.8506031 270.632097,61.2047697 C271.155118,59.8506031 271.434063,58.2291667 271.695574,55.7881031 L271.695574,55.7881031 Z M294.11578,32.2505482 L291.640143,29.7203947 C282.278051,19.8848684 274.084041,9.24753289 264.460438,2.58360746 C270.998212,9.26535088 271.608404,12.4191338 283.69021,25.1233553 L292.250335,34.1392544 C296.225302,38.2908443 300.81046,42.9769737 305.65713,47.8412829 L316.413947,58.8349781 C309.876173,49.3736294 300.793026,39.0926535 294.080912,32.2327303 L294.11578,32.2505482 Z M298.003576,28.1880482 L295.527939,25.6578947 C287.682611,17.5328947 280.534645,9.51480263 272.846223,2.29851974 C278.233348,10.9580592 285.729996,19.7957785 293.488154,27.9029605 L295.87662,30.3440241 C302.763076,37.3821272 309.109075,43.8678728 316.344211,50.1932566 C310.521234,42.3533443 304.959768,35.3152412 297.986142,28.1880482 L298.003576,28.1880482 Z M301.525257,24.4819079 L299.223961,22.0408443 C292.877962,15.270011 286.514528,8.51699561 281.040232,2.47669956 C284.666518,9.51480263 290.036209,16.1787281 297.358516,23.8582785 L299.746983,26.2993421 C306.633438,33.3374452 310.329459,37.2930373 316.239607,42.4424342 C310.242289,34.2283443 306.790344,30.0945724 301.507823,24.4997259 L301.525257,24.4819079 Z M325.270451,2.65487939 C322.620474,2.65487939 320.423782,4.72176535 319.273134,7.60827851 C319.098793,5.078125 318.750112,3.4566886 318.122485,2.10252193 C317.599464,3.4566886 317.320519,5.078125 317.059008,7.5191886 C315.908359,4.72176535 313.798838,2.65487939 310.974519,2.65487939 C314.775145,5.54139254 317.512293,11.4035088 318.122485,16.9092654 C319.011623,11.4035088 321.556996,5.63048246 325.270451,2.65487939 L325.270451,2.65487939 Z" id="Shape"></path>
                </g>
            </g>
        </g>
    </g>
</svg>