<?xml version="1.0" encoding="UTF-8"?>
<svg width="503px" height="287px" viewBox="0 0 503 287" version="1.1" xmlns="http://www.w3.org/2000/svg" xmlns:xlink="http://www.w3.org/1999/xlink">
    <title>Group 83</title>
    <defs>
        <polygon id="path-1" points="0 0 503 0 503 287 0 287"></polygon>
    </defs>
    <g id="Page-1" stroke="none" stroke-width="1" fill="none" fill-rule="evenodd">
        <g id="maquette" transform="translate(-260.000000, -158.000000)">
            <g id="header" transform="translate(-71.742018, 0.000000)">
                <g id="Group-83" transform="translate(331.742018, 158.000000)">
                    <g id="Group-3">
                        <mask id="mask-2" fill="white">
                            <use xlink:href="#path-1"></use>
                        </mask>
                        <g id="Clip-2"></g>
                        <path d="M251.501036,287 C112.600356,287 -0.000230177612,222.752703 -0.000230177612,143.5 C-0.000230177612,64.2472971 112.600356,0 251.501036,0 C390.399414,0 503,64.2472971 503,143.5 C503,222.752703 390.399414,287 251.501036,287 Z" id="Fill-1" fill="#19171C" opacity="0.500999814" mask="url(#mask-2)"></path>
                    </g>
                    <path d="M225.387688,225.622803 C225.425459,226.870595 225.814963,227.377288 226.787543,227.415172 L228.846014,227.415172 C230.479571,227.415172 231.293989,225.779073 231.293989,222.542391 C231.293989,218.839268 231.100418,217.162918 230.479571,215.877243 C230.052297,214.941991 228.923915,214.279027 227.835664,214.279027 L225.387688,214.279027 L225.387688,225.622803 Z M225.347558,213.653948 L228.41874,213.653948 C229.896495,213.653948 230.517342,212.133868 230.517342,208.665149 C230.517342,206.015663 230.052297,203.792369 229.351189,203.169657 C228.883784,202.738731 228.41874,202.622712 227.059016,202.622712 L225.347558,202.622712 L225.347558,213.653948 Z M214,227.377288 L215.749228,227.377288 C216.91538,227.339404 217.729798,226.63619 217.729798,225.738822 L217.729798,203.870504 C217.692028,202.895 217.302524,202.662963 215.515526,202.622712 L214,202.622712 L214,202 L227.48629,202 C231.216089,202 232.965317,202.350423 235.066279,203.52008 C236.968949,204.571351 238.01943,206.209817 238.01943,208.158456 C238.01943,209.562517 237.396223,210.926327 236.426003,211.783444 C235.297621,212.758947 234.287271,213.227757 231.643363,213.928604 C234.558743,214.435297 235.880697,214.863856 237.396223,215.955377 C238.98965,217.087151 240,219.111556 240,221.178581 C240,223.555778 238.833848,225.582552 236.813147,226.676441 C234.910478,227.727712 233.083348,228 228.225168,228 L214,228 L214,227.377288 Z" id="Fill-4" fill="#F4B92F"></path>
                    <path d="M254.344592,216.656224 L251.165801,206.287952 L247.753897,216.615973 L254.344592,216.656224 Z M240,227.377288 C242.63722,227.299153 244.382023,225.232128 246.164501,220.008925 L251.902809,202 L257.718821,202 L265.432689,224.919588 C266.051965,227.064748 266.36278,227.337037 267.874472,227.377288 L269,227.377288 L269,228 L253.956073,228 L253.956073,227.377288 L255.545469,227.377288 C256.708672,227.377288 257.212569,227.024497 257.212569,226.283399 C257.212569,225.932975 257.13722,225.428649 256.981812,224.919588 L254.5,217.200801 L247.638519,217.200801 L246.786132,219.892906 C246.435287,221.100446 246.242205,222.151717 246.242205,223.167471 C246.242205,226.089245 247.560815,227.377288 250.546525,227.377288 L250.546525,228 L240,228 L240,227.377288 Z" id="Fill-6" fill="#F4B92F"></path>
                    <path d="M280.515184,215.017455 L282.235977,215.017455 C284.950697,215.017455 285.677563,213.938996 285.677563,209.816988 C285.677563,207.122008 285.484816,205.926579 285.027331,205.002519 C284.530368,204.11589 283.610754,203.61526 282.35209,203.61526 L280.515184,203.61526 L280.515184,215.017455 Z M270,228.07594 L270.536442,228.07594 C272.143444,227.996401 272.907467,227.343711 272.867989,226.185712 L272.907467,204.965089 C272.944623,204.11589 272.44766,203.694799 271.22383,203.61526 L270.076635,203.61526 L270.076635,203 L282.389246,203 C286.441586,203 288.122901,203.3088 290.150232,204.42469 C292.061451,205.503149 293.245802,207.274069 293.245802,209.201728 C293.245802,210.472017 292.635048,211.859277 291.717756,212.743567 C290.647195,213.824366 289.539478,214.362426 286.748124,215.326255 C291.94766,216.633975 293.245802,218.135865 293.132011,222.758503 L293.132011,225.493252 C293.132011,226.419651 293.361915,226.840741 293.858878,226.840741 C294.852805,226.840741 295.542515,224.955192 295.542515,221.988843 L295.503037,220.447184 L296,220.447184 C295.960522,224.068562 295.960522,224.529422 295.656306,225.570452 C295.04323,227.689941 293.132011,229 290.647195,229 C288.965881,229 287.321722,228.34497 286.097892,227.189311 C285.217756,226.379881 284.834584,224.992622 284.834584,222.912903 C284.834584,222.643873 284.834584,221.834443 284.874062,221.256613 C284.950697,220.332554 284.987853,219.214324 284.987853,218.868094 C284.987853,216.711175 284.260986,215.672485 282.73294,215.672485 L280.515184,215.672485 L280.515184,226.302681 C280.515184,227.226741 280.935513,227.881771 281.77617,228.07594 L283.037156,228.07594 L283.037156,228.6912 L270,228.6912 L270,228.07594 Z" id="Fill-8" fill="#F4B92F"></path>
                    <g id="Group-82" transform="translate(34.000000, 98.000000)">
                        <path d="M327.190728,64.0183536 C331.7594,57.1940621 333.859143,49.4412955 333.859143,41.4564103 C333.859143,33.471525 331.874771,25.3705803 326.959987,18.6623482 C329.05973,25.6026991 330.005769,32.4269906 330.005769,41.4564103 C330.005769,50.5090418 329.175101,57.0780027 327.190728,64.0183536 M257.714615,19.9622132 C253.169018,26.7865047 251.046201,34.5392713 251.046201,42.5241565 C251.046201,50.5090418 253.030573,58.3778677 257.945356,65.3182186 C255.845613,58.3778677 254.899575,51.5767881 254.899575,42.5241565 C254.899575,33.471525 255.730243,26.9025641 257.714615,19.9622132 M262.860139,42.5241565 C262.860139,25.6026991 265.882847,16.5500675 269.043998,10.3292848 C263.667733,15.1573549 258.75295,25.0224022 258.75295,42.5241565 C258.75295,59.9098516 264.729142,69.6588394 270.566889,75.2993252 C267.405737,69.3106613 262.860139,59.445614 262.860139,42.5241565 M261.798731,74.4869096 C252.569091,67.1983806 247.077456,56.6137652 247.077456,43.4526316 C247.077456,26.9025641 254.784205,13.9735493 267.98259,6.56896086 C275.573968,2.34439946 283.765273,0 294.033248,0 C304.785778,0 315.399864,3.27287449 323.82191,10.2132254 C333.513032,18.1981107 337.827888,29.4790823 337.827888,41.688529 C337.827888,58.4939271 329.428916,71.3068826 315.169123,79.1757085 C309.562117,82.2396761 301.278515,85.0483131 293.341025,85.0483131 C281.527086,85.0483131 270.336148,81.2879892 261.798731,74.4869096 M270.79763,42.5241565 C270.79763,22.1905533 276.173895,10.097166 283.049976,4.10850202 C272.782002,8.79730094 266.713514,22.1905533 266.713514,42.5241565 C266.713514,62.4863698 275.227857,75.6475034 285.865017,80.8237517 C278.85049,73.7673414 270.79763,62.8345479 270.79763,42.5241565 M302.316849,79.8720648 C312.607898,75.1832659 318.214904,61.7900135 318.214904,41.4564103 C318.214904,21.494197 310.138969,8.33306343 299.063401,3.15681511 C307.000891,10.2132254 314.130788,21.1460189 314.130788,41.4564103 C314.130788,61.7900135 309.216005,73.8834008 302.316849,79.8720648 M294.840841,81.7522267 C304.185851,76.4831309 310.138969,61.0936572 310.138969,43.3365722 C310.138969,22.1905533 302.801405,7.26531714 290.872096,3.04075574 C281.296345,7.52064777 274.766375,22.1905533 274.766375,41.1082321 C274.766375,62.0221323 284.226755,77.2955466 294.840841,81.7522267 M314.361529,8.68124157 C317.499607,14.6699055 322.068278,24.5349528 322.068278,41.4564103 C322.068278,58.3778677 319.253238,67.4304993 316.115161,73.6512821 C321.468352,68.8464238 326.152394,58.9581646 326.152394,41.4564103 C326.152394,24.0707152 320.199276,14.3217274 314.361529,8.68124157" id="Fill-10" fill="#F4B92F"></path>
                        <path d="M79.0749384,41.4564103 C79.0749384,58.9581646 74.3908962,68.8464238 69.0146311,73.6512821 C72.1757827,67.4304993 74.9908228,58.3778677 74.9908228,41.4564103 C74.9908228,24.5349528 70.4221511,14.6699055 67.2840736,8.68124157 C73.1218208,14.3217274 79.0749384,24.0707152 79.0749384,41.4564103" id="Fill-12" fill="#1C1C1C"></path>
                        <path d="M230.856364,80.3595142 C223.380356,76.1117409 222.572762,70.0070175 222.572762,44.868556 L222.572762,39.9244265 C222.572762,14.5538462 223.611097,9.14547908 230.856364,4.57273954 C226.080025,10.9095816 226.080025,17.1535762 226.080025,39.9244265 L226.080025,44.868556 C226.080025,67.6626181 226.080025,73.7673414 230.856364,80.3595142" id="Fill-14" fill="#1C1C1C"></path>
                        <path d="M151.343017,58.3778677 L152.404426,60.0259109 C160.318842,72.4210526 164.97981,77.2723347 170.10226,80.6844804 C163.45692,78.5721997 156.926949,74.5797571 149.127904,61.2097166 L148.297236,59.7937922 C145.620641,55.1978408 143.405527,50.85722 140.844302,45.3327935 C144.582306,48.2807018 148.551051,53.9211876 151.343017,58.3778677" id="Fill-16" fill="#1C1C1C"></path>
                        <path d="M254.899575,42.5241565 C254.899575,51.5767881 255.845613,58.3778677 257.945356,65.3182186 C253.030573,58.3778677 251.046201,50.5090418 251.046201,42.5241565 C251.046201,34.5392713 253.169018,26.7865047 257.714615,19.9622132 C255.730243,26.9025641 254.899575,33.471525 254.899575,42.5241565" id="Fill-18" fill="#1C1C1C"></path>
                        <path d="M79.0749384,41.4564103 C79.0749384,24.0707152 73.1218208,14.3217274 67.2840736,8.68124157 C70.4221511,14.6699055 74.9908228,24.5349528 74.9908228,41.4564103 C74.9908228,58.3778677 72.1757827,67.4304993 69.0146311,73.6512821 C74.3908962,68.8464238 79.0749384,58.9581646 79.0749384,41.4564103 M46.2635691,85.0483131 C34.4496303,85.0483131 23.235618,81.2879892 14.7212754,74.4869096 C5.49163564,67.1983806 0,56.6137652 0,43.4526316 C0,26.9025641 7.70674917,13.9735493 20.905134,6.56896086 C28.4965127,2.34439946 36.6647438,6.11066753e-14 46.9557921,6.11066753e-14 C57.7083224,6.11066753e-14 68.3224081,3.27287449 76.7444543,10.2132254 C86.4355761,18.1981107 90.7504326,29.4790823 90.7504326,41.688529 C90.7504326,58.4939271 82.3283864,71.3068826 68.0916671,79.1757085 C62.484661,82.2396761 54.2010593,85.0483131 46.2635691,85.0483131 M71.1374482,41.4564103 C71.1374482,21.494197 63.0615135,8.33306343 51.9859458,3.15681511 C59.9234359,10.2132254 67.0302585,21.1460189 67.0302585,41.4564103 C67.0302585,61.7900135 62.1385495,73.8834008 55.2393938,79.8720648 C65.5304421,75.1832659 71.1374482,61.7900135 71.1374482,41.4564103 M7.82211967,42.5241565 C7.82211967,33.471525 8.65278725,26.9025641 10.6371598,19.9622132 C6.06848812,26.7865047 3.96874508,34.5392713 3.96874508,42.5241565 C3.96874508,50.5090418 5.95311763,58.3778677 10.8679008,65.3182186 C8.76815774,58.3778677 7.82211967,51.5767881 7.82211967,42.5241565 M43.7946405,3.04075574 C34.2188893,7.52064777 27.6889192,22.1905533 27.6889192,41.1082321 C27.6889192,62.0221323 37.1492999,77.2955466 47.7633856,81.7522267 C57.1083958,76.4831309 63.0615135,61.0936572 63.0615135,43.3365722 C63.0615135,22.1905533 55.7008758,7.26531714 43.7946405,3.04075574 M35.9725208,4.10850202 C25.7045466,8.79730094 19.6360585,22.1905533 19.6360585,42.5241565 C19.6360585,62.4863698 28.1504012,75.6475034 38.787561,80.8237517 C31.7730348,73.7673414 23.7201741,62.8345479 23.7201741,42.5241565 C23.7201741,22.1905533 29.0964392,10.097166 35.9725208,4.10850202 M79.8825319,18.6623482 C81.9822749,25.6026991 82.928313,32.4269906 82.928313,41.4564103 C82.928313,50.5090418 82.0976454,57.0780027 80.1132729,64.0183536 C84.6819445,57.1940621 86.7816876,49.4412955 86.7816876,41.4564103 C86.7816876,33.471525 84.797315,25.3705803 79.8825319,18.6623482 M23.4894331,75.2993252 C20.3282815,69.3106613 15.7826839,59.445614 15.7826839,42.5241565 C15.7826839,25.6026991 18.8053909,16.5500675 21.9665426,10.3292848 C16.5902774,15.1573549 11.6754943,25.0224022 11.6754943,42.5241565 C11.6754943,59.9098516 17.6286119,69.6588394 23.4894331,75.2993252" id="Fill-20" fill="#F4B92F"></path>
                        <path d="M270.79763,42.5241565 C270.79763,62.8345479 278.85049,73.7673414 285.865017,80.8237517 C275.227857,75.6475034 266.713514,62.4863698 266.713514,42.5241565 C266.713514,22.1905533 272.782002,8.79730094 283.049976,4.10850202 C276.173895,10.097166 270.79763,22.1905533 270.79763,42.5241565" id="Fill-22" fill="#1C1C1C"></path>
                        <path d="M201.552258,9.5168691 C198.737217,4.68879892 194.999213,3.27287449 192.322618,2.6925776 L192.437988,1.27665317 C197.929624,1.27665317 208.082228,1.62483131 216.019718,1.62483131 L217.081126,1.62483131 L217.081126,3.99244265 C215.096754,13.3932524 215.096754,17.9659919 215.096754,39.9244265 L215.096754,44.868556 C215.096754,66.8502024 215.096754,71.5390013 217.081126,80.9398111 L217.058052,83.4002699 L215.788977,83.4002699 C209.374377,83.4002699 197.583513,83.6323887 192.89947,83.748448 L192.89947,83.6091768 C195.645288,83.1217274 198.02192,82.4950067 199.8217,81.7522267 L199.567885,80.2434548 C198.991033,80.3595142 198.183439,80.4755735 197.468142,80.4755735 C197.283549,80.382726 197.122031,80.2898785 196.937438,80.1738192 C197.90655,79.5238866 198.714143,78.8507422 199.337144,78.1079622 C201.667628,75.2993252 203.190519,71.7711201 203.652001,68.3589744 C204.113483,65.2021592 204.459594,58.7260459 204.459594,40.9921727 C204.459594,23.2582996 204.344224,14.3217274 201.552258,9.5168691 M202.475222,4.57273954 C207.966857,10.9095816 207.966857,17.1535762 207.966857,39.9244265 L207.966857,44.868556 C207.966857,67.6626181 207.966857,73.7673414 202.475222,80.3595142 C210.666527,76.1117409 211.47412,70.0070175 211.47412,44.868556 L211.47412,39.9244265 C211.47412,14.5538462 210.412712,9.14547908 202.475222,4.57273954" id="Fill-24" fill="#F4B92F"></path>
                        <path d="M412.19571,4.68879892 C415.933714,4.68879892 418.748755,7.38137652 420.271645,11.025641 C420.617757,7.86882591 420.963868,5.75654521 421.656091,3.99244265 C422.486759,5.75654521 422.948241,7.86882591 423.178982,11.1417004 C424.701872,7.38137652 427.632283,4.68879892 431.116472,4.68879892 C426.224763,8.56518219 422.83287,16.08583 421.656091,23.2582996 C420.848498,16.08583 417.225864,8.44912281 412.19571,4.68879892" id="Fill-26" fill="#1C1C1C"></path>
                        <path d="M168.625518,23.1422402 C168.625518,30.8950067 165.118255,37.3479082 160.457287,41.1082321 C163.133882,37.2318489 164.656773,31.7074224 164.656773,23.374359 C164.656773,15.0180837 162.441659,9.26153846 159.880434,5.52442645 C165.48744,9.0294197 168.625518,15.2734143 168.625518,23.1422402" id="Fill-28" fill="#1C1C1C"></path>
                        <path d="M199.8217,81.7522267 C198.02192,82.4950067 195.645288,83.1217274 192.89947,83.6091768 L192.7841,82.3557355 C194.353139,81.705803 195.760659,80.9630229 196.937438,80.1738192 C197.122031,80.2898785 197.283549,80.382726 197.468142,80.4755735 C198.183439,80.4755735 198.991033,80.3595142 199.567885,80.2434548 L199.8217,81.7522267 Z" id="Fill-30" fill="#F4B92F"></path>
                        <path d="M207.966857,39.9244265 C207.966857,17.1535762 207.966857,10.9095816 202.475222,4.57273954 C210.412712,9.14547908 211.47412,14.5538462 211.47412,39.9244265 L211.47412,44.868556 C211.47412,70.0070175 210.666527,76.1117409 202.475222,80.3595142 C207.966857,73.7673414 207.966857,67.6626181 207.966857,44.868556 L207.966857,39.9244265 Z" id="Fill-32" fill="#1C1C1C"></path>
                        <path d="M79.8825319,18.6623482 C84.797315,25.3705803 86.7816876,33.471525 86.7816876,41.4564103 C86.7816876,49.4412955 84.6819445,57.1940621 80.1132729,64.0183536 C82.0976454,57.0780027 82.928313,50.5090418 82.928313,41.4564103 C82.928313,32.4269906 81.9822749,25.6026991 79.8825319,18.6623482" id="Fill-34" fill="#1C1C1C"></path>
                        <path d="M395.02858,37.9282051 C404.25822,47.2129555 411.618858,56.3816464 419.325607,66.5948718 C409.749856,58.3778677 401.350884,49.9287449 392.236614,40.760054 L389.075463,37.580027 C378.807489,27.0186235 368.885626,15.5055331 361.755729,4.2245614 C371.908333,13.6253711 381.368714,24.0707152 391.775132,34.6553306 L395.02858,37.9282051 Z" id="Fill-36" fill="#1C1C1C"></path>
                        <path d="M15.7826839,42.5241565 C15.7826839,59.445614 20.3282815,69.3106613 23.4894331,75.2993252 C17.6286119,69.6588394 11.6754943,59.9098516 11.6754943,42.5241565 C11.6754943,25.0224022 16.5902774,15.1573549 21.9665426,10.3292848 C18.8053909,16.5500675 15.7826839,25.6026991 15.7826839,42.5241565" id="Fill-38" fill="#1C1C1C"></path>
                        <path d="M350.657087,4.57273954 C363.39399,13.277193 374.238817,27.1346829 386.629608,39.9244265 L389.90613,43.2205128 C398.766585,52.157085 410.811264,65.5503374 419.440978,77.8758435 L405.204258,63.5541161 C398.766585,57.1940621 392.698096,51.0893387 387.437202,45.6809717 L376.130893,33.9357625 C360.117468,17.385695 359.309875,13.277193 350.657087,4.57273954" id="Fill-40" fill="#1C1C1C"></path>
                        <path d="M302.316849,79.8720648 C309.216005,73.8834008 314.130788,61.7900135 314.130788,41.4564103 C314.130788,21.1460189 307.000891,10.2132254 299.063401,3.15681511 C310.138969,8.33306343 318.214904,21.494197 318.214904,41.4564103 C318.214904,61.7900135 312.607898,75.1832659 302.316849,79.8720648" id="Fill-42" fill="#1C1C1C"></path>
                        <path d="M106.140857,4.57273954 C114.101421,9.14547908 115.139756,14.5538462 115.139756,39.9244265 L115.139756,44.868556 C115.139756,70.0070175 114.332162,76.1117409 106.140857,80.3595142 C111.632493,73.7673414 111.632493,67.6626181 111.632493,44.868556 L111.632493,39.9244265 C111.632493,17.1535762 111.632493,10.9095816 106.140857,4.57273954" id="Fill-44" fill="#1C1C1C"></path>
                        <path d="M170.148408,9.74898785 C174.117153,12.5576248 176.332267,17.2696356 176.332267,22.6547908 C176.332267,27.9470985 173.540301,32.7751687 169.917667,36.0480432 C171.209817,33.0072874 172.478892,28.8987854 172.478892,22.9101215 C172.478892,17.385695 171.440558,12.5576248 170.148408,9.74898785" id="Fill-46" fill="#1C1C1C"></path>
                        <path d="M149.243274,45.3327935 C152.750538,48.3967611 156.14243,52.0410256 158.126803,55.1978408 L158.934396,56.4977058 C166.871886,69.0785425 172.825004,75.531444 181.13168,81.520108 C172.478892,79.4078273 163.479994,71.0747638 155.311763,58.2618084 L154.504169,56.9619433 C152.173685,53.2016194 150.420053,49.4412955 149.243274,45.3327935" id="Fill-48" fill="#1C1C1C"></path>
                        <path d="M357.325502,73.7673414 C355.802612,77.5276653 352.872201,80.2434548 349.364938,80.2434548 C354.395092,76.3438596 357.671614,68.7303644 358.825319,61.5578947 C359.655986,68.7303644 363.163249,76.3438596 368.285699,80.2434548 C364.547695,80.2434548 361.755729,77.5276653 360.232839,73.8834008 C359.886727,77.0634278 359.540616,79.1757085 358.825319,80.9398111 C358.017725,79.1757085 357.556243,77.0634278 357.325502,73.7673414" id="Fill-50" fill="#1C1C1C"></path>
                        <path d="M7.82211967,42.5241565 C7.82211967,51.5767881 8.76815774,58.3778677 10.8679008,65.3182186 C5.95311763,58.3778677 3.96874508,50.5090418 3.96874508,42.5241565 C3.96874508,34.5392713 6.06848812,26.7865047 10.6371598,19.9622132 C8.65278725,26.9025641 7.82211967,33.471525 7.82211967,42.5241565" id="Fill-52" fill="#1C1C1C"></path>
                        <path d="M386.629608,39.9244265 C374.238817,27.1346829 363.39399,13.277193 350.657087,4.57273954 C359.309875,13.277193 360.117468,17.385695 376.130893,33.9357625 L387.437202,45.6809717 C392.698096,51.0893387 398.766585,57.1940621 405.204258,63.5541161 L419.440978,77.8758435 C410.811264,65.5503374 398.766585,52.157085 389.90613,43.2205128 L386.629608,39.9244265 Z M336.88185,1.27665317 C341.542818,1.39271255 347.611306,1.50877193 353.102942,1.50877193 C360.002098,1.50877193 366.901253,1.27665317 370.270072,1.27665317 C372.139074,1.27665317 373.546594,1.27665317 374.954114,1.62483131 C390.252242,18.4302294 403.450627,32.4269906 419.210237,47.7004049 C419.440978,45.5649123 419.556348,42.9883941 419.556348,40.5279352 C419.556348,36.1873144 419.440978,32.2877193 418.979496,28.5506073 C418.171902,21.3781377 416.3029,15.9697706 413.60323,12.0933873 C410.580523,7.63670715 406.473334,4.34062078 400.404846,2.6925776 L400.520216,1.27665317 C405.66574,1.27665317 414.549268,1.50877193 420.848498,1.50877193 C427.493838,1.50877193 435.800514,1.39271255 439.88463,1.27665317 L440,2.6925776 C437.092663,3.99244265 433.816141,6.56896086 431.716398,9.14547908 C429.616655,11.8612686 427.863024,15.1573549 426.916986,17.7338731 C425.394095,21.9584345 424.701872,26.182996 424.355761,30.0593792 C423.894279,34.6553306 423.640464,40.8761134 423.640464,50.7411606 L423.640464,66.5948718 C423.640464,73.0709852 423.894279,79.9881242 424.24039,85.62861 L421.42535,86 C401.350884,64.9700405 378.461377,41.2242915 361.98647,24.9063428 L361.524988,24.9063428 C361.178877,28.5506073 361.063506,33.0072874 361.063506,36.4194332 C361.063506,40.9921727 361.063506,46.8647773 361.409618,52.5052632 C362.447952,68.0107962 365.839845,72.351417 369.577849,76.2278003 C372.254444,78.9435897 375.761707,81.2879892 380.215009,82.3557355 L380.099638,83.748448 C377.284598,83.748448 366.185956,83.5163293 358.825319,83.5163293 C352.410719,83.5163293 344.127117,83.748448 340.735225,83.748448 L340.619854,82.3557355 C342.834968,81.2879892 344.81934,80.1041835 347.749751,77.1794872 C350.772458,73.9994602 354.856573,67.4304993 355.917982,57.9136302 C356.956317,48.7449393 356.956317,41.1082321 356.956317,29.8272605 C356.956317,18.5462888 353.102942,12.4415655 349.018826,8.68124157 C344.70397,4.68879892 340.158372,3.38893387 336.76648,2.6925776 L336.88185,1.27665317 Z M361.755729,4.2245614 C368.885626,15.5055331 378.807489,27.0186235 389.075463,37.580027 L392.236614,40.760054 C401.350884,49.9287449 409.749856,58.3778677 419.325607,66.5948718 C411.618858,56.3816464 404.25822,47.2129555 395.02858,37.9282051 L391.775132,34.6553306 C381.368714,24.0707152 371.908333,13.6253711 361.755729,4.2245614 L361.755729,4.2245614 Z M349.364938,80.2434548 C352.872201,80.2434548 355.802612,77.5276653 357.325502,73.7673414 C357.556243,77.0634278 358.017725,79.1757085 358.825319,80.9398111 C359.540616,79.1757085 359.886727,77.0634278 360.232839,73.8834008 C361.755729,77.5276653 364.547695,80.2434548 368.285699,80.2434548 C363.163249,76.3438596 359.655986,68.7303644 358.825319,61.5578947 C357.671614,68.7303644 354.395092,76.3438596 349.364938,80.2434548 L349.364938,80.2434548 Z M419.210237,56.4977058 C411.272746,45.8202429 406.704075,40.4118758 399.712623,33.1233468 L396.666841,29.9433198 C388.267869,21.1460189 379.845823,12.3255061 372.62363,4.45668016 C377.399969,13.6253711 384.529865,22.3066127 394.220987,32.2877193 L397.382139,35.4677463 C406.473334,44.6364372 411.388117,49.8126856 419.210237,56.4977058 L419.210237,56.4977058 Z M423.178982,11.1417004 C422.948241,7.86882591 422.486759,5.75654521 421.656091,3.99244265 C420.963868,5.75654521 420.617757,7.86882591 420.271645,11.025641 C418.748755,7.38137652 415.933714,4.68879892 412.19571,4.68879892 C417.225864,8.44912281 420.848498,16.08583 421.656091,23.2582996 C422.83287,16.08583 426.224763,8.56518219 431.116472,4.68879892 C427.632283,4.68879892 424.701872,7.38137652 423.178982,11.1417004 L423.178982,11.1417004 Z" id="Fill-54" fill="#F4B92F"></path>
                        <path d="M132.999109,38.0442645 L132.999109,40.6439946 C135.352667,41.5724696 140.359746,42.059919 143.636268,42.059919 C145.159159,42.059919 146.682049,41.9438596 147.951125,41.8045884 C150.996906,38.0442645 152.981279,32.4269906 152.981279,25.0224022 C152.981279,19.4979757 151.458388,14.7859649 149.243274,11.397031 C146.312864,6.917139 142.713304,5.03697706 139.090671,4.34062078 C137.106298,4.45668016 135.814149,4.57273954 134.406629,5.26909582 C133.137553,14.4377868 132.999109,26.9025641 132.999109,38.0442645 L132.999109,38.0442645 Z M151.343017,58.3778677 C148.551051,53.9211876 144.582306,48.2807018 140.844302,45.3327935 C143.405527,50.85722 145.620641,55.1978408 148.297236,59.7937922 L149.127904,61.2097166 C156.926949,74.5797571 163.45692,78.5721997 170.10226,80.6844804 C164.97981,77.2723347 160.318842,72.4210526 152.404426,60.0259109 L151.343017,58.3778677 Z M133.599035,66.1306343 C134.175888,71.7711201 135.352667,74.1155196 137.106298,76.4831309 C139.898264,80.1041835 144.928418,81.520108 148.551051,82.1004049 L148.435681,83.748448 C142.944045,83.748448 127.415176,83.5163293 119.939168,83.5163293 C112.232419,83.5163293 101.595259,83.6323887 96.6804762,83.748448 L96.5651057,82.3557355 C98.7802192,81.520108 102.402853,79.4078273 104.156484,76.831309 C106.256227,73.7673414 107.317636,69.7748988 107.779118,62.9506073 C108.009859,59.2134953 108.2406,51.9249663 108.2406,47.5611336 L108.2406,42.9883941 C108.2406,34.4232119 108.2406,26.9025641 107.894488,21.2620783 C107.548377,15.6215924 107.086895,12.905803 105.448634,9.86504723 C104.271855,7.63670715 102.518223,5.75654521 100.533851,4.57273954 C99.1494048,3.76032389 96.5651057,2.80863698 94.9268446,2.6925776 L95.0652892,1.27665317 C99.7262573,1.39271255 112.232419,1.50877193 117.47024,1.50877193 C124.254025,1.50877193 132.768368,1.16059379 140.359746,1.16059379 C152.981279,1.16059379 160.803398,1.39271255 168.279406,4.68879892 C175.986156,8.10094467 180.301012,13.9735493 180.301012,22.1905533 C180.301012,34.3071525 171.209817,41.4564103 161.495621,44.5203779 C166.525775,48.3967611 172.132781,57.3333333 180.301012,66.2466937 C185.723425,72.1425101 191.699617,77.2955466 196.937438,80.1738192 C195.760659,80.9630229 194.353139,81.705803 192.7841,82.3557355 L192.89947,83.6091768 C188.67691,84.3751687 183.623682,84.8161943 178.662751,84.8161943 C173.771042,84.8161943 168.856259,84.1198381 165.833552,82.9360324 C161.749436,81.2879892 158.011432,78.5954116 154.965651,75.2993252 C147.258902,66.9662618 141.882637,56.1495277 136.990928,45.3327935 C135.929519,45.3327935 134.060517,45.3327935 132.999109,45.2167341 L132.999109,50.6251012 C132.999109,56.0334683 133.137553,61.2097166 133.599035,66.1306343 L133.599035,66.1306343 Z M115.139756,39.9244265 C115.139756,14.5538462 114.101421,9.14547908 106.140857,4.57273954 C111.632493,10.9095816 111.632493,17.1535762 111.632493,39.9244265 L111.632493,44.868556 C111.632493,67.6626181 111.632493,73.7673414 106.140857,80.3595142 C114.332162,76.1117409 115.139756,70.0070175 115.139756,44.868556 L115.139756,39.9244265 Z M135.468037,80.3595142 C129.74566,74.3476383 129.74566,67.6626181 129.74566,44.868556 L129.74566,39.9244265 C129.74566,17.1535762 129.976401,10.9095816 131.014736,4.57273954 C127.530547,9.14547908 126.238397,14.5538462 126.238397,39.9244265 L126.238397,44.868556 C126.238397,70.0070175 127.045991,76.7152497 135.468037,80.3595142 L135.468037,80.3595142 Z M122.615764,39.9244265 C122.615764,17.9659919 122.615764,13.3932524 120.746762,3.99244265 C118.762389,13.3932524 118.762389,17.9659919 118.762389,39.9244265 L118.762389,44.868556 C118.762389,66.8502024 118.762389,71.5390013 120.746762,80.9398111 C122.615764,71.422942 122.615764,66.8502024 122.615764,44.868556 L122.615764,39.9244265 Z M160.803398,23.6064777 C160.803398,13.6253711 155.081022,5.3851552 146.682049,3.76032389 C151.804499,6.56896086 156.719283,13.7414305 156.719283,23.9546559 C156.719283,33.0072874 154.965651,38.0442645 152.404426,41.688529 C157.526876,37.6960864 160.803398,32.4269906 160.803398,23.6064777 L160.803398,23.6064777 Z M158.126803,55.1978408 C156.14243,52.0410256 152.750538,48.3967611 149.243274,45.3327935 C150.420053,49.4412955 152.173685,53.2016194 154.504169,56.9619433 L155.311763,58.2618084 C163.479994,71.0747638 172.478892,79.4078273 181.13168,81.520108 C172.825004,75.531444 166.871886,69.0785425 158.934396,56.4977058 L158.126803,55.1978408 Z M164.426032,52.8534413 C162.095548,49.8126856 159.395878,46.9808367 156.14243,44.7524966 C157.411506,47.5611336 159.165137,50.5090418 161.14951,53.6890688 L161.980177,54.965722 C169.917667,67.5465587 182.285385,79.4078273 191.399654,80.8237517 C183.692905,76.1117409 175.524674,67.5465587 165.948922,54.8496626 L164.426032,52.8534413 Z M159.880434,5.52442645 C162.441659,9.26153846 164.656773,15.0180837 164.656773,23.374359 C164.656773,31.7074224 163.133882,37.2318489 160.457287,41.1082321 C165.118255,37.3479082 168.625518,30.8950067 168.625518,23.1422402 C168.625518,15.2734143 165.48744,9.0294197 159.880434,5.52442645 L159.880434,5.52442645 Z M169.917667,36.0480432 C173.540301,32.7751687 176.332267,27.9470985 176.332267,22.6547908 C176.332267,17.2696356 174.117153,12.5576248 170.148408,9.74898785 C171.440558,12.5576248 172.478892,17.385695 172.478892,22.9101215 C172.478892,28.8987854 171.209817,33.0072874 169.917667,36.0480432 L169.917667,36.0480432 Z" id="Fill-56" fill="#F4B92F"></path>
                        <path d="M161.14951,53.6890688 C159.165137,50.5090418 157.411506,47.5611336 156.14243,44.7524966 C159.395878,46.9808367 162.095548,49.8126856 164.426032,52.8534413 L165.948922,54.8496626 C175.524674,67.5465587 183.692905,76.1117409 191.399654,80.8237517 C182.285385,79.4078273 169.917667,67.5465587 161.980177,54.965722 L161.14951,53.6890688 Z" id="Fill-58" fill="#1C1C1C"></path>
                        <path d="M258.75295,42.5241565 C258.75295,25.0224022 263.667733,15.1573549 269.043998,10.3292848 C265.882847,16.5500675 262.860139,25.6026991 262.860139,42.5241565 C262.860139,59.445614 267.405737,69.3106613 270.566889,75.2993252 C264.729142,69.6588394 258.75295,59.9098516 258.75295,42.5241565" id="Fill-60" fill="#1C1C1C"></path>
                        <path d="M71.1374482,41.4564103 C71.1374482,61.7900135 65.5304421,75.1832659 55.2393938,79.8720648 C62.1385495,73.8834008 67.0302585,61.7900135 67.0302585,41.4564103 C67.0302585,21.1460189 59.9234359,10.2132254 51.9859458,3.15681511 C63.0615135,8.33306343 71.1374482,21.494197 71.1374482,41.4564103" id="Fill-62" fill="#1C1C1C"></path>
                        <path d="M322.068278,41.4564103 C322.068278,24.5349528 317.499607,14.6699055 314.361529,8.68124157 C320.199276,14.3217274 326.152394,24.0707152 326.152394,41.4564103 C326.152394,58.9581646 321.468352,68.8464238 316.115161,73.6512821 C319.253238,67.4304993 322.068278,58.3778677 322.068278,41.4564103" id="Fill-64" fill="#1C1C1C"></path>
                        <path d="M129.74566,44.868556 C129.74566,67.6626181 129.74566,74.3476383 135.468037,80.3595142 C127.045991,76.7152497 126.238397,70.0070175 126.238397,44.868556 L126.238397,39.9244265 C126.238397,14.5538462 127.530547,9.14547908 131.014736,4.57273954 C129.976401,10.9095816 129.74566,17.1535762 129.74566,39.9244265 L129.74566,44.868556 Z" id="Fill-66" fill="#1C1C1C"></path>
                        <path d="M146.682049,3.76032389 C155.081022,5.3851552 160.803398,13.6253711 160.803398,23.6064777 C160.803398,32.4269906 157.526876,37.6960864 152.404426,41.688529 C154.965651,38.0442645 156.719283,33.0072874 156.719283,23.9546559 C156.719283,13.7414305 151.804499,6.56896086 146.682049,3.76032389" id="Fill-68" fill="#1C1C1C"></path>
                        <path d="M333.859143,41.4564103 C333.859143,49.4412955 331.7594,57.1940621 327.190728,64.0183536 C329.175101,57.0780027 330.005769,50.5090418 330.005769,41.4564103 C330.005769,32.4269906 329.05973,25.6026991 326.959987,18.6623482 C331.874771,25.3705803 333.859143,33.471525 333.859143,41.4564103" id="Fill-70" fill="#1C1C1C"></path>
                        <path d="M217.081126,80.9398111 C218.950128,71.422942 218.950128,66.8502024 218.950128,44.868556 L218.950128,39.9244265 C218.950128,17.9659919 218.950128,13.3932524 217.081126,3.99244265 L217.081126,1.62483131 C224.211023,1.62483131 233.579107,1.50877193 239.27841,1.27665317 L239.509151,2.80863698 C237.755519,3.50499325 234.017515,5.75654521 232.148513,9.5168691 C231.202475,11.397031 230.279511,14.3217274 230.04877,18.31417 C229.818029,23.2582996 229.564214,29.2469636 229.564214,37.9282051 C229.564214,53.9211876 229.702659,63.7862348 230.164141,67.7786775 C230.625623,71.7711201 231.433216,74.3476383 233.186848,77.1794872 C234.594368,79.5238866 236.809481,81.1719298 239.27841,82.2396761 L238.909224,83.748448 C232.609995,83.6323887 223.057318,83.4234818 217.058052,83.4002699 L217.081126,80.9398111 Z M222.572762,44.868556 C222.572762,70.0070175 223.380356,76.1117409 230.856364,80.3595142 C226.080025,73.7673414 226.080025,67.6626181 226.080025,44.868556 L226.080025,39.9244265 C226.080025,17.1535762 226.080025,10.9095816 230.856364,4.57273954 C223.611097,9.14547908 222.572762,14.5538462 222.572762,39.9244265 L222.572762,44.868556 Z" id="Fill-72" fill="#F4B92F"></path>
                        <path d="M399.712623,33.1233468 C406.704075,40.4118758 411.272746,45.8202429 419.210237,56.4977058 C411.388117,49.8126856 406.473334,44.6364372 397.382139,35.4677463 L394.220987,32.2877193 C384.529865,22.3066127 377.399969,13.6253711 372.62363,4.45668016 C379.845823,12.3255061 388.267869,21.1460189 396.666841,29.9433198 L399.712623,33.1233468 Z" id="Fill-74" fill="#1C1C1C"></path>
                        <path d="M19.6360585,42.5241565 C19.6360585,22.1905533 25.7045466,8.79730094 35.9725208,4.10850202 C29.0964392,10.097166 23.7201741,22.1905533 23.7201741,42.5241565 C23.7201741,62.8345479 31.7730348,73.7673414 38.787561,80.8237517 C28.1504012,75.6475034 19.6360585,62.4863698 19.6360585,42.5241565" id="Fill-76" fill="#1C1C1C"></path>
                        <path d="M215.096754,44.868556 L215.096754,39.9244265 C215.096754,17.9659919 215.096754,13.3932524 217.081126,3.99244265 C218.950128,13.3932524 218.950128,17.9659919 218.950128,39.9244265 L218.950128,44.868556 C218.950128,66.8502024 218.950128,71.422942 217.081126,80.9398111 C215.096754,71.5390013 215.096754,66.8502024 215.096754,44.868556" id="Fill-78" fill="#1C1C1C"></path>
                        <path d="M118.762389,44.868556 L118.762389,39.9244265 C118.762389,17.9659919 118.762389,13.3932524 120.746762,3.99244265 C122.615764,13.3932524 122.615764,17.9659919 122.615764,39.9244265 L122.615764,44.868556 C122.615764,66.8502024 122.615764,71.422942 120.746762,80.9398111 C118.762389,71.5390013 118.762389,66.8502024 118.762389,44.868556" id="Fill-80" fill="#1C1C1C"></path>
                    </g>
                </g>
            </g>
        </g>
    </g>
</svg>